<svg width="9" height="10" viewBox="0 0 9 10" fill="none" xmlns="http://www.w3.org/2000/svg">
<path d="M0.204919 8.96354C0.204484 9.12018 0.24628 9.27405 0.325954 9.40893C0.405716 9.54381 0.520308 9.65466 0.657713 9.7298C0.790069 9.80626 0.940188 9.84649 1.09309 9.84649C1.24591 9.84649 1.39603 9.80626 1.52847 9.7298L7.7892 5.63727C7.91141 5.55834 8.01189 5.45003 8.08147 5.32225C8.15104 5.19449 8.1875 5.05132 8.1875 4.90583C8.1875 4.76034 8.15104 4.61718 8.08147 4.48941C8.01189 4.36163 7.91141 4.25334 7.7892 4.17439L1.51106 0.116656C1.37862 0.0402291 1.2285 0 1.07568 0C0.922773 0 0.772654 0.0402291 0.640299 0.116656C0.502806 0.191846 0.3883 0.302711 0.308539 0.437565C0.228865 0.572428 0.187068 0.726283 0.187503 0.882924L0.204919 8.96354Z" fill="#3BB9B7"/>
</svg>
