<svg width="10" height="12" viewBox="0 0 10 12" fill="none" xmlns="http://www.w3.org/2000/svg">
<path d="M0.0201206 10.2939C0.0196209 10.4738 0.0676203 10.6505 0.159121 10.8054C0.250721 10.9603 0.38232 11.0876 0.54012 11.1739C0.692121 11.2617 0.86452 11.3079 1.04012 11.3079C1.21562 11.3079 1.38802 11.2617 1.54012 11.1739L8.73008 6.47397C8.87043 6.38332 8.98583 6.25894 9.06573 6.1122C9.14563 5.96547 9.1875 5.80105 9.1875 5.63397C9.1875 5.46689 9.14563 5.30247 9.06573 5.15574C8.98583 5.009 8.87043 4.88463 8.73008 4.79397L1.52012 0.13397C1.36802 0.0462 1.19562 0 1.02012 0C0.844521 0 0.672121 0.0462 0.520121 0.13397C0.362221 0.22032 0.230721 0.34764 0.13912 0.50251C0.0476198 0.65739 -0.000379562 0.83408 0.000120163 1.01397L0.0201206 10.2939Z" fill="white"/>
</svg>
