<svg width="46" height="46" viewBox="0 0 46 46" fill="none" xmlns="http://www.w3.org/2000/svg">
<circle cx="23" cy="23" r="23" fill="#3BB9B7"/>
<path d="M14.82 33.392C12.384 33.392 10.452 32.468 9.052 30.62C7.68 28.744 6.98 26.28 6.98 23.2C6.98 20.12 7.68 17.656 9.052 15.808C10.452 13.932 12.384 13.008 14.82 13.008C17.284 13.008 19.216 13.932 20.588 15.808C21.96 17.656 22.66 20.12 22.66 23.2C22.66 26.28 21.96 28.744 20.588 30.62C19.216 32.468 17.284 33.392 14.82 33.392ZM18.824 23.2C18.824 19.028 17.424 16.76 14.82 16.76C12.216 16.76 10.844 19.028 10.844 23.2C10.844 27.372 12.216 29.612 14.82 29.612C17.424 29.612 18.824 27.344 18.824 23.2ZM35.9567 13.4L31.6167 19.756C33.6607 19.812 35.3127 20.484 36.5727 21.744C37.8327 23.004 38.4767 24.6 38.4767 26.56C38.4767 28.548 37.8047 30.2 36.4887 31.488C35.1727 32.748 33.4647 33.392 31.3647 33.392C29.2647 33.392 27.5567 32.748 26.2407 31.488C24.9247 30.228 24.2807 28.576 24.2807 26.56C24.2807 25.076 24.6727 23.76 25.4287 22.612L31.5327 13.4H35.9567ZM34.6407 26.56C34.6407 24.656 33.2407 23.396 31.3647 23.396C29.4887 23.396 28.1167 24.628 28.1167 26.56C28.1167 28.492 29.4887 29.752 31.3647 29.752C33.2407 29.752 34.6407 28.492 34.6407 26.56Z" fill="white"/>
</svg>
