<svg width="20" height="20" viewBox="0 0 20 20" fill="none" xmlns="http://www.w3.org/2000/svg">
<g clip-path="url(#clip0_83_516)">
<path d="M7.25193 13.6364H2.25193C1.87306 13.6364 1.50969 13.4859 1.24178 13.218C0.973874 12.9501 0.823364 12.5867 0.823364 12.2079V2.20786C0.823364 1.82899 0.973874 1.46562 1.24178 1.19772C1.50969 0.929807 1.87306 0.779297 2.25193 0.779297H16.5377C16.9166 0.779297 17.2799 0.929807 17.5479 1.19772C17.8157 1.46562 17.9663 1.82899 17.9663 2.20786V8.63643" stroke="#282828" stroke-width="1.5" stroke-linecap="round" stroke-linejoin="round"/>
<path d="M0.823364 2.5791L9.39479 8.63624L17.9663 2.5791" stroke="#282828" stroke-width="1.5" stroke-linecap="round" stroke-linejoin="round"/>
<path d="M10.4851 15.2089C9.98374 15.1217 9.98374 14.4019 10.4851 14.3148C12.3013 13.9988 13.7459 12.6154 14.1401 10.8145L14.1703 10.6765C14.2788 10.181 14.9843 10.1779 15.097 10.6725L15.1337 10.8333C15.5426 12.6257 16.9874 13.9974 18.7987 14.3125C19.3026 14.4001 19.3026 15.1235 18.7987 15.2111C16.9874 15.5262 15.5426 16.8979 15.1337 18.6904L15.097 18.8512C14.9843 19.3457 14.2788 19.3427 14.1703 18.8471L14.1401 18.7091C13.7459 16.9082 12.3013 15.5248 10.4851 15.2089Z" stroke="#282828" stroke-width="1.5" stroke-linecap="round" stroke-linejoin="round"/>
</g>
<defs>
<clipPath id="clip0_83_516">
<rect width="20" height="20" fill="white"/>
</clipPath>
</defs>
</svg>
