<svg width="78" height="48" viewBox="0 0 78 48" fill="none" xmlns="http://www.w3.org/2000/svg">
<path d="M0 24C0 10.7452 10.7452 0 24 0H78V48H24C10.7452 48 0 37.2548 0 24V24Z" fill="#0B63D8"/>
<path d="M24.9917 43C35.4806 43 43.9835 34.4934 43.9835 24C43.9835 13.5066 35.4806 5 24.9917 5C14.5029 5 6 13.5066 6 24C6 34.4934 14.5029 43 24.9917 43Z" fill="#3BB9B7"/>
<path d="M25.0059 5C21.1904 4.99774 17.4635 6.14967 14.3142 8.3046C12.1143 11.9748 11.2862 16.3064 11.977 20.5298C12.6678 24.7531 14.8328 28.5947 18.0873 31.372L17.1278 37.0608L22.046 33.9645C25.52 35.6138 29.4291 36.1127 33.2058 35.389C36.9825 34.6652 40.4305 32.7563 43.0494 29.9393C43.9876 27.0851 44.236 24.0491 43.7741 21.0803C43.3122 18.1115 42.1533 15.2946 40.3924 12.8607C38.6315 10.4269 36.3188 8.44543 33.6442 7.07898C30.9695 5.71254 28.0091 5.00006 25.0059 5Z" fill="white"/>
<path d="M17.094 25.2355C17.0699 24.8716 17.0755 24.5063 17.1109 24.1433C17.1867 23.9314 17.3088 23.7391 17.4682 23.5804C18.1435 22.6796 18.8225 21.7808 19.5053 20.8838L20.521 19.5355C20.5576 19.4876 20.5885 19.4342 20.642 19.3497C20.5322 19.3497 20.4563 19.3356 20.3831 19.3356C19.3871 19.3356 18.3911 19.3356 17.3951 19.3356C17.215 19.3356 17.1363 19.2906 17.1447 19.0992C17.1447 18.7417 17.1447 18.3842 17.1447 18.0267C17.1447 17.8916 17.1841 17.8269 17.3388 17.8269C18.8113 17.8269 20.2837 17.8269 21.7561 17.8269C22.0375 17.8269 22.347 17.8269 22.6396 17.8269C22.7944 17.8269 22.8647 17.8776 22.845 18.0352V18.0605C22.845 19.0879 22.845 19.0795 22.1276 19.9943C21.4101 20.9091 20.6926 21.8746 19.9808 22.8091C19.7613 23.0906 19.5531 23.3946 19.314 23.7211H22.9407V25.2411L17.094 25.2355Z" fill="#3BB9B7"/>
<path d="M28.9955 25.2387H27.1836V24.4393L26.9022 24.7574C26.4183 25.3203 25.4954 25.5005 24.6513 25.1655C24.318 25.0298 24.0386 24.7882 23.856 24.4779C23.6735 24.1676 23.5981 23.8059 23.6413 23.4485C23.6714 23.1621 23.7816 22.8901 23.9593 22.6635C24.137 22.437 24.3749 22.2652 24.6457 22.1678C25.1682 21.9744 25.7205 21.8743 26.2776 21.8722C26.559 21.8497 26.8403 21.8384 27.1217 21.8215C27.2849 21.2586 27.0063 20.8645 26.4408 20.8589C26.0581 20.8589 25.7121 20.9264 25.5573 21.3486C25.5573 21.3852 25.4729 21.4078 25.4251 21.4218C25.3784 21.4276 25.3311 21.4276 25.2844 21.4218H23.9283C23.9243 21.2143 23.9613 21.0081 24.0371 20.8149C24.1129 20.6217 24.226 20.4453 24.37 20.2959C24.9608 19.6654 25.7346 19.5218 26.5477 19.5303C27.1386 19.5153 27.7205 19.677 28.219 19.9947C28.4664 20.1564 28.6681 20.3791 28.8046 20.6414C28.9411 20.9037 29.0078 21.1967 28.9983 21.4922C28.9983 22.7026 28.9983 23.9158 28.9983 25.1261C29.0001 25.1637 28.9992 25.2013 28.9955 25.2387ZM27.1611 22.8602C26.8516 22.8827 26.5618 22.8968 26.272 22.9277C26.0983 22.9373 25.9268 22.9714 25.7627 23.0291C25.6613 23.0635 25.5736 23.1298 25.5128 23.218C25.452 23.3062 25.4212 23.4117 25.4251 23.5189C25.4157 23.6229 25.4421 23.7271 25.4999 23.8141C25.5577 23.9011 25.6435 23.9658 25.743 23.9974C25.9184 24.0741 26.1104 24.1048 26.301 24.0865C26.4915 24.0683 26.6742 24.0018 26.8319 23.8932C27.192 23.6483 27.2174 23.2824 27.1611 22.8602Z" fill="#3BB9B7"/>
<path d="M38.2521 22.5197C38.2723 23.2558 38.0164 23.9728 37.5347 24.5295C37.2489 24.833 36.8975 25.0669 36.5073 25.2133C36.1171 25.3597 35.6985 25.4146 35.2838 25.3739C34.8407 25.3581 34.4024 25.2756 33.9839 25.129C33.5465 24.9564 33.1852 24.6329 32.9654 24.2171C32.6605 23.7085 32.4947 23.1286 32.4848 22.5357C32.475 21.9428 32.6213 21.3577 32.9091 20.8393C33.0858 20.5127 33.3368 20.2323 33.6418 20.0206C33.9468 19.8089 34.2972 19.6718 34.6648 19.6205C35.5933 19.4488 36.4796 19.5388 37.242 20.1468C38.0045 20.7548 38.2521 21.543 38.2521 22.5197ZM36.3108 21.8498C36.2858 21.6879 36.227 21.533 36.1383 21.3953C36.0496 21.2576 35.9329 21.1401 35.7959 21.0504C35.326 20.7267 34.7661 21.0222 34.496 21.5486C34.3048 22.1573 34.3237 22.8125 34.5495 23.4092C34.6115 23.5884 34.7295 23.7429 34.8861 23.8499C35.0426 23.9568 35.2294 24.0105 35.4188 24.0031C35.5818 24.0218 35.7462 23.9832 35.8838 23.8938C36.0214 23.8044 36.1236 23.6699 36.1729 23.5133C36.3614 22.98 36.4089 22.4069 36.3108 21.8498Z" fill="#3BB9B7"/>
<path d="M31.7584 25.2414H29.952V24.9149C29.952 22.6856 29.952 20.4562 29.952 18.2269C29.952 17.8131 29.9521 17.8131 30.3544 17.8159C30.7567 17.8188 31.0888 17.8328 31.4517 17.8159C31.7021 17.8159 31.7612 17.8919 31.7612 18.1256C31.7612 20.338 31.7612 22.5533 31.7612 24.7657L31.7584 25.2414Z" fill="#3BB9B7"/>
</svg>
