<svg width="54" height="36" viewBox="0 0 54 36" fill="none" xmlns="http://www.w3.org/2000/svg">
<path d="M14.12 35.672C9.944 35.672 6.632 34.088 4.232 30.92C1.88 27.704 0.68 23.48 0.68 18.2C0.68 12.92 1.88 8.696 4.232 5.528C6.632 2.312 9.944 0.727998 14.12 0.727998C18.344 0.727998 21.656 2.312 24.008 5.528C26.36 8.696 27.56 12.92 27.56 18.2C27.56 23.48 26.36 27.704 24.008 30.92C21.656 34.088 18.344 35.672 14.12 35.672ZM20.984 18.2C20.984 11.048 18.584 7.16 14.12 7.16C9.656 7.16 7.304 11.048 7.304 18.2C7.304 25.352 9.656 29.192 14.12 29.192C18.584 29.192 20.984 25.304 20.984 18.2ZM38.8434 13.64H42.2994C45.5154 13.64 48.2514 14.6 50.4594 16.568C52.6674 18.488 53.7714 21.176 53.7714 24.632C53.7714 28.088 52.6194 30.776 50.2674 32.744C47.9634 34.712 45.1314 35.672 41.7714 35.672C36.3474 35.672 31.9314 33.224 30.0594 28.472L35.7234 25.16C36.5394 27.848 38.5554 29.192 41.7714 29.192C45.1794 29.192 47.1474 27.464 47.1474 24.632C47.1474 21.896 45.1794 20.072 41.9634 20.072H31.7874L33.1314 1.4H52.1874V7.592H39.2754L38.8434 13.64Z" fill="#3BB9B7"/>
</svg>
