<svg width="46" height="46" viewBox="0 0 46 46" fill="none" xmlns="http://www.w3.org/2000/svg">
<circle cx="23" cy="23" r="23" fill="#3BB9B7"/>
<path d="M17.82 33.392C15.384 33.392 13.452 32.468 12.052 30.62C10.68 28.744 9.98 26.28 9.98 23.2C9.98 20.12 10.68 17.656 12.052 15.808C13.452 13.932 15.384 13.008 17.82 13.008C20.284 13.008 22.216 13.932 23.588 15.808C24.96 17.656 25.66 20.12 25.66 23.2C25.66 26.28 24.96 28.744 23.588 30.62C22.216 32.468 20.284 33.392 17.82 33.392ZM21.824 23.2C21.824 19.028 20.424 16.76 17.82 16.76C15.216 16.76 13.844 19.028 13.844 23.2C13.844 27.372 15.216 29.612 17.82 29.612C20.424 29.612 21.824 27.344 21.824 23.2ZM26.3978 15.22L31.5498 13.4H34.9098V33H31.0458V17.488L27.3498 18.524L26.3978 15.22Z" fill="white"/>
</svg>
