<svg width="14" height="14" viewBox="0 0 14 14" fill="none" xmlns="http://www.w3.org/2000/svg">
<g clip-path="url(#clip0_312_945)">
<path d="M0.930104 6.51015C0.596304 5.99175 0.450004 5.37472 0.515504 4.76163C0.581004 4.14855 0.854304 3.57634 1.2901 3.14015L1.6701 2.76015C1.8405 2.59161 2.0704 2.49707 2.3101 2.49707C2.5497 2.49707 2.7797 2.59161 2.9501 2.76015L4.54009 4.36015C4.70802 4.52882 4.8023 4.75714 4.8023 4.99515C4.8023 5.23316 4.70802 5.46148 4.54009 5.63015C4.37154 5.80052 4.27701 6.0305 4.27701 6.27015C4.27701 6.5098 4.37154 6.73978 4.54009 6.91015L7.09009 9.46015C7.26046 9.6287 7.49044 9.72324 7.73009 9.72324C7.96974 9.72324 8.19972 9.6287 8.37009 9.46015C8.53876 9.29222 8.76708 9.19794 9.00509 9.19794C9.2431 9.19794 9.47142 9.29222 9.64009 9.46015L11.2401 11.0001C11.4086 11.1705 11.5032 11.4005 11.5032 11.6401C11.5032 11.8798 11.4086 12.1098 11.2401 12.2801L10.8601 12.6601C10.4301 13.1037 9.86089 13.3864 9.24759 13.461C8.63429 13.5357 8.01394 13.3977 7.49009 13.0701C4.90131 11.3264 2.6738 9.09893 0.930104 6.51015Z" stroke="white" stroke-linecap="round" stroke-linejoin="round"/>
<path d="M13.5 7C13.5 6.14641 13.3319 5.30117 13.0052 4.51256C12.6786 3.72394 12.1998 3.00739 11.5962 2.40381C10.9926 1.80022 10.2761 1.32144 9.48744 0.994783C8.69883 0.668128 7.85359 0.5 7 0.5" stroke="white" stroke-linecap="round" stroke-linejoin="round"/>
<path d="M11 7C11 5.93913 10.5786 4.92172 9.82843 4.17157C9.07828 3.42143 8.06087 3 7 3" stroke="white" stroke-linecap="round" stroke-linejoin="round"/>
</g>
<defs>
<clipPath id="clip0_312_945">
<rect width="14" height="14" fill="white" transform="translate(14) rotate(90)"/>
</clipPath>
</defs>
</svg>
