<svg width="60" height="60" viewBox="0 0 60 60" fill="none" xmlns="http://www.w3.org/2000/svg">
<rect width="60" height="60" rx="5" fill="white"/>
<g clip-path="url(#clip0_2_9)">
<path d="M39.4179 25.1333H34.5058V20.264C34.5058 20.0172 34.4069 19.7805 34.2309 19.6059C34.0548 19.4314 33.816 19.3333 33.567 19.3333H28.047C27.798 19.3333 27.5592 19.4314 27.3832 19.6059C27.2071 19.7805 27.1082 20.0172 27.1082 20.264V25.1333H22.1961C21.9471 25.1333 21.7084 25.2314 21.5323 25.4059C21.3562 25.5805 21.2573 25.8172 21.2573 26.064V31.536C21.2573 31.7828 21.3562 32.0195 21.5323 32.1941C21.7084 32.3686 21.9471 32.4667 22.1961 32.4667H27.1082V37.336C27.1082 37.5828 27.2071 37.8195 27.3832 37.9941C27.5592 38.1686 27.798 38.2667 28.047 38.2667H33.567C33.816 38.2667 34.0548 38.1686 34.2309 37.9941C34.4069 37.8195 34.5058 37.5828 34.5058 37.336V32.4667H39.4179C39.6669 32.4667 39.9057 32.3686 40.0817 32.1941C40.2578 32.0195 40.3567 31.7828 40.3567 31.536V26.064C40.3567 25.8172 40.2578 25.5805 40.0817 25.4059C39.9057 25.2314 39.6669 25.1333 39.4179 25.1333Z" fill="#0B63D8"/>
<path d="M50.3449 34.472C49.4952 37.4225 47.9826 40.144 45.9206 42.4323C43.8586 44.7207 41.3007 46.5166 38.4387 47.6853C37.7473 47.9678 37.0405 48.2117 36.3216 48.416C36.3174 49.8984 35.7203 51.3187 34.6613 52.3655C33.6024 53.4122 32.168 54 30.6725 54C29.1771 54 27.7426 53.4122 26.6837 52.3655C25.6247 51.3187 25.0277 49.8984 25.0234 48.416V48.4C25.0213 47.4084 25.287 46.4342 25.7927 45.5787C26.2902 44.7331 27.0026 44.0317 27.8588 43.5441C28.715 43.0566 29.6851 42.8 30.6725 42.8C31.6599 42.8 32.6301 43.0566 33.4863 43.5441C34.3425 44.0317 35.0548 44.7331 35.5523 45.5787C36.2496 45.3783 36.9333 45.1343 37.5994 44.848C39.9053 43.8546 41.9691 42.3821 43.6515 40.5299C45.3338 38.6778 46.5953 36.4891 47.3509 34.112C48.033 34.3922 48.7645 34.5354 49.5029 34.5333C49.7847 34.5332 50.0661 34.5127 50.3449 34.472Z" fill="#0B63D8"/>
<path d="M53 28.9333C53 29.6177 52.7956 30.2868 52.4127 30.8563C52.0297 31.4258 51.4853 31.8701 50.848 32.1333C50.422 32.3103 49.9647 32.4009 49.5029 32.4C48.9407 32.399 48.3871 32.2636 47.8889 32.0053C47.3217 31.7128 46.8463 31.2718 46.5143 30.7302C46.1823 30.1886 46.0065 29.5671 46.0058 28.9333C46.0065 28.2996 46.1823 27.6781 46.5143 27.1365C46.8463 26.5949 47.3217 26.1538 47.8889 25.8613C47.7607 25.1487 47.5864 24.4451 47.367 23.7547C46.5408 21.1567 45.111 18.7872 43.1926 16.8368C41.2742 14.8865 38.9207 13.4097 36.3216 12.5253C36.6817 11.7316 36.8652 10.8703 36.8596 10C36.8596 9.86933 36.8596 9.73334 36.8596 9.60801C40.0825 10.6235 43.0017 12.4139 45.3571 14.8194C47.7124 17.225 49.4305 20.171 50.3584 23.3947C50.5789 24.1647 50.7514 24.9476 50.8748 25.7387C51.5063 26.0056 52.0445 26.4509 52.4224 27.019C52.8003 27.5871 53.0012 28.2528 53 28.9333Z" fill="#0B63D8"/>
<path d="M23.7456 44.848C23.2806 45.73 22.9955 46.6941 22.9063 47.6853C20.2304 46.5929 17.8181 44.9511 15.8281 42.8682C13.8381 40.7852 12.3156 38.3081 11.3606 35.6C11.106 34.8777 10.894 34.1414 10.7257 33.3947C9.67723 33.1987 8.73088 32.6454 8.05048 31.8307C7.37008 31.016 6.99847 29.991 7 28.9333C6.99973 27.8765 7.3719 26.8529 8.05219 26.0392C8.73248 25.2256 9.67814 24.6731 10.7257 24.4773C11.0052 24.4258 11.2888 24.3999 11.5731 24.4C12.3015 24.3985 13.0195 24.5714 13.666 24.904C14.4128 25.2851 15.0393 25.8626 15.4768 26.5734C15.9144 27.2842 16.1459 28.1007 16.1462 28.9333C16.1459 29.766 15.9144 30.5825 15.4768 31.2932C15.0393 32.004 14.4128 32.5816 13.666 32.9627C13.834 33.6625 14.047 34.351 14.3035 35.024C15.1343 37.2044 16.398 39.1974 18.0199 40.8849C19.6418 42.5724 21.5888 43.92 23.7456 44.848Z" fill="#0B63D8"/>
<path d="M34.7076 10C34.7093 10.6849 34.5314 11.3585 34.1911 11.9547C33.8408 12.5747 33.3301 13.091 32.7117 13.4505C32.0933 13.81 31.3894 13.9997 30.6725 14C29.9556 13.9997 29.2517 13.81 28.6333 13.4505C28.0149 13.091 27.5042 12.5747 27.1539 11.9547C26.5618 12.0726 25.9764 12.2213 25.4 12.4C25.2799 12.4373 25.1588 12.4773 25.0368 12.52C22.5923 13.3512 20.3629 14.7068 18.5076 16.4902C16.6523 18.2736 15.2168 20.4408 14.3035 22.8373C13.4442 22.4581 12.5137 22.2636 11.5731 22.2667C11.5032 22.2667 11.4305 22.2667 11.3606 22.2667C12.4082 19.2895 14.1408 16.595 16.4213 14.3969C18.7018 12.1987 21.4673 10.5573 24.4988 9.60267C25.2057 9.38574 25.9242 9.20769 26.6509 9.06934L26.7639 9.048C26.9784 8.18019 27.4798 7.40856 28.1882 6.85614C28.8966 6.30372 29.7712 6.00232 30.6725 6C31.5746 5.9995 32.4508 6.29866 33.1613 6.84971C33.8717 7.40075 34.3754 8.17191 34.5919 9.04001C34.6689 9.3543 34.7077 9.67658 34.7076 10Z" fill="#0B63D8"/>
</g>
<defs>
<clipPath id="clip0_2_9">
<rect width="46" height="48" fill="white" transform="translate(7 6)"/>
</clipPath>
</defs>
</svg>
