<svg width="53" height="36" viewBox="0 0 53 36" fill="none" xmlns="http://www.w3.org/2000/svg">
<path d="M14.12 35.672C9.944 35.672 6.632 34.088 4.232 30.92C1.88 27.704 0.68 23.48 0.68 18.2C0.68 12.92 1.88 8.696 4.232 5.528C6.632 2.312 9.944 0.727998 14.12 0.727998C18.344 0.727998 21.656 2.312 24.008 5.528C26.36 8.696 27.56 12.92 27.56 18.2C27.56 23.48 26.36 27.704 24.008 30.92C21.656 34.088 18.344 35.672 14.12 35.672ZM20.984 18.2C20.984 11.048 18.584 7.16 14.12 7.16C9.656 7.16 7.304 11.048 7.304 18.2C7.304 25.352 9.656 29.192 14.12 29.192C18.584 29.192 20.984 25.304 20.984 18.2ZM51.107 6.872L44.819 15.032C49.379 16.376 52.499 19.88 52.499 24.632C52.499 28.088 51.347 30.776 48.995 32.744C46.691 34.712 43.859 35.672 40.499 35.672C35.267 35.672 30.851 33.224 28.979 28.568L34.643 25.304C35.459 27.896 37.427 29.192 40.499 29.192C43.907 29.192 45.875 27.464 45.875 24.632C45.875 21.896 43.907 20.072 40.499 20.072H39.059L36.515 16.232L43.139 7.592H29.987V1.4H51.107V6.872Z" fill="#3BB9B7"/>
</svg>
