<svg width="53" height="36" viewBox="0 0 53 36" fill="none" xmlns="http://www.w3.org/2000/svg">
<path d="M14.12 35.672C9.944 35.672 6.632 34.088 4.232 30.92C1.88 27.704 0.68 23.48 0.68 18.2C0.68 12.92 1.88 8.696 4.232 5.528C6.632 2.312 9.944 0.727998 14.12 0.727998C18.344 0.727998 21.656 2.312 24.008 5.528C26.36 8.696 27.56 12.92 27.56 18.2C27.56 23.48 26.36 27.704 24.008 30.92C21.656 34.088 18.344 35.672 14.12 35.672ZM20.984 18.2C20.984 11.048 18.584 7.16 14.12 7.16C9.656 7.16 7.304 11.048 7.304 18.2C7.304 25.352 9.656 29.192 14.12 29.192C18.584 29.192 20.984 25.304 20.984 18.2ZM52.1506 35H29.6866V30.056L41.1586 18.248C43.7026 15.56 44.9986 13.304 44.9986 11.528C44.9986 8.888 43.1746 7.16 40.6306 7.16C38.0866 7.16 36.2146 8.456 35.0146 11.096L29.4466 7.832C31.5586 3.224 35.7826 0.727998 40.5346 0.727998C43.5586 0.727998 46.1986 1.688 48.3586 3.608C50.5186 5.48 51.6226 8.072 51.6226 11.288C51.6226 14.792 49.7986 18.344 46.1026 22.04L39.5266 28.616H52.1506V35Z" fill="#3BB9B7"/>
</svg>
