<svg width="20" height="20" viewBox="0 0 20 20" fill="none" xmlns="http://www.w3.org/2000/svg">
<g clip-path="url(#clip0_83_529)">
<path d="M10.7 18.6713C11.4405 19.1481 12.322 19.3571 13.1978 19.2636C14.0737 19.17 14.8911 18.7796 15.5142 18.157L16.0571 17.6141C16.2979 17.3707 16.4329 17.0423 16.4329 16.6999C16.4329 16.3576 16.2979 16.029 16.0571 15.7856L13.7714 13.5142C13.5304 13.2743 13.2043 13.1396 12.8642 13.1396C12.5242 13.1396 12.1981 13.2743 11.9571 13.5142C11.7137 13.7549 11.3852 13.89 11.0428 13.89C10.7005 13.89 10.3719 13.7549 10.1285 13.5142L6.48566 9.87129C6.24488 9.62791 6.10982 9.29937 6.10982 8.95701C6.10982 8.61465 6.24488 8.28611 6.48566 8.04272C6.72556 7.80177 6.86025 7.47559 6.86025 7.13558C6.86025 6.79557 6.72556 6.46939 6.48566 6.22844L4.28572 3.94272C4.04229 3.70194 3.71372 3.56689 3.37144 3.56689C3.02901 3.56689 2.70044 3.70194 2.45715 3.94272L1.91429 4.48558C1.28058 5.09992 0.876721 5.91301 0.77015 6.78915C0.663435 7.66529 0.860579 8.55151 1.32858 9.29987C3.81958 12.9981 7.00169 16.1803 10.7 18.6713Z" stroke="#FF9900" stroke-width="1.5" stroke-linecap="round" stroke-linejoin="round"/>
<path d="M9.99999 0.714355C11.2194 0.714355 12.4269 0.954537 13.5535 1.42119C14.6801 1.88784 15.7037 2.57183 16.566 3.43408C17.4282 4.29634 18.1122 5.31998 18.5789 6.44658C19.0455 7.57317 19.2857 8.78066 19.2857 10.0001" stroke="#FF9900" stroke-width="1.5" stroke-linecap="round" stroke-linejoin="round"/>
<path d="M10 4.28564C11.5155 4.28564 12.969 4.88769 14.0406 5.95932C15.1123 7.03096 15.7143 8.4844 15.7143 9.99993" stroke="#FF9900" stroke-width="1.5" stroke-linecap="round" stroke-linejoin="round"/>
</g>
<defs>
<clipPath id="clip0_83_529">
<rect width="20" height="20" fill="white" transform="matrix(-1 0 0 1 20 0)"/>
</clipPath>
</defs>
</svg>
