<svg width="31" height="30" viewBox="0 0 31 30" fill="none" xmlns="http://www.w3.org/2000/svg">
<path d="M15.3109 29.7861C23.5915 29.7861 30.3043 23.1183 30.3043 14.8931C30.3043 6.66786 23.5915 0 15.3109 0C7.03019 0 0.317383 6.66786 0.317383 14.8931C0.317383 23.1183 7.03019 29.7861 15.3109 29.7861Z" fill="#3BB9B7"/>
<path d="M15.322 2.61375e-06C12.3098 -0.001773 9.3675 0.901167 6.88124 2.5903C5.14447 5.46718 4.49068 8.86248 5.03604 12.1729C5.5814 15.4834 7.29061 18.4946 9.85995 20.6716L9.10249 25.1307L12.9852 22.7037C15.7279 23.9965 18.814 24.3876 21.7956 23.8203C24.7773 23.2529 27.4994 21.7566 29.5669 19.5485C30.3076 17.3113 30.5037 14.9315 30.139 12.6045C29.7744 10.2774 28.8594 8.06939 27.4693 6.16161C26.0791 4.25384 24.2533 2.70068 22.1417 1.6296C20.0301 0.558522 17.693 4.47983e-05 15.322 2.61375e-06Z" fill="white"/>
<path d="M9.07582 15.8616C9.05674 15.5764 9.06118 15.2901 9.08913 15.0056C9.14899 14.8395 9.24536 14.6887 9.37124 14.5643C9.90434 13.8582 10.4404 13.1537 10.9794 12.4506L11.7813 11.3937C11.8102 11.3562 11.8346 11.3143 11.8768 11.2481C11.7902 11.2481 11.7302 11.2371 11.6725 11.2371C10.8861 11.2371 10.0998 11.2371 9.31348 11.2371C9.17132 11.2371 9.10915 11.2018 9.11581 11.0517C9.11581 10.7715 9.11581 10.4913 9.11581 10.2111C9.11581 10.1052 9.1469 10.0544 9.26907 10.0544C10.4315 10.0544 11.594 10.0544 12.7564 10.0544C12.9786 10.0544 13.2229 10.0544 13.4539 10.0544C13.5761 10.0544 13.6316 10.0942 13.6161 10.2177V10.2376C13.6161 11.0429 13.6161 11.0363 13.0496 11.7534C12.4832 12.4704 11.9168 13.2272 11.3548 13.9597C11.1816 14.1804 11.0172 14.4187 10.8284 14.6746H13.6916V15.866L9.07582 15.8616Z" fill="#3BB9B7"/>
<path d="M18.4718 15.864H17.0413V15.2373L16.8192 15.4867C16.4371 15.9279 15.7085 16.0692 15.0421 15.8066C14.779 15.7002 14.5584 15.5108 14.4143 15.2676C14.2702 15.0244 14.2106 14.7409 14.2447 14.4607C14.2685 14.2362 14.3555 14.023 14.4958 13.8454C14.636 13.6678 14.8239 13.5331 15.0377 13.4568C15.4502 13.3052 15.8863 13.2268 16.326 13.2251C16.5482 13.2075 16.7703 13.1986 16.9924 13.1854C17.1213 12.7441 16.9013 12.4352 16.4549 12.4308C16.1528 12.4308 15.8796 12.4838 15.7574 12.8147C15.7574 12.8434 15.6908 12.8611 15.653 12.8721C15.6161 12.8766 15.5788 12.8766 15.5419 12.8721H14.4713C14.4682 12.7095 14.4974 12.5478 14.5572 12.3963C14.6171 12.2449 14.7064 12.1067 14.82 11.9896C15.2865 11.4953 15.8973 11.3828 16.5393 11.3894C17.0057 11.3777 17.4652 11.5045 17.8587 11.7535C18.0541 11.8802 18.2133 12.0548 18.3211 12.2604C18.4288 12.4659 18.4815 12.6956 18.474 12.9273C18.474 13.876 18.474 14.827 18.474 15.7757C18.4754 15.8051 18.4747 15.8346 18.4718 15.864ZM17.0235 13.9996C16.7792 14.0172 16.5504 14.0282 16.3216 14.0525C16.1845 14.06 16.0491 14.0867 15.9195 14.1319C15.8394 14.1589 15.7703 14.2109 15.7222 14.28C15.6742 14.3492 15.6499 14.4319 15.653 14.5159C15.6456 14.5974 15.6664 14.6791 15.7121 14.7473C15.7577 14.8155 15.8254 14.8662 15.904 14.8909C16.0424 14.9511 16.1941 14.9751 16.3445 14.9608C16.4949 14.9466 16.6391 14.8944 16.7636 14.8093C17.0479 14.6174 17.0679 14.3305 17.0235 13.9996Z" fill="#3BB9B7"/>
<path d="M25.7796 13.7327C25.7955 14.3096 25.5935 14.8716 25.2132 15.308C24.9876 15.5459 24.7101 15.7293 24.4021 15.844C24.094 15.9588 23.7636 16.0018 23.4361 15.9699C23.0863 15.9575 22.7403 15.8928 22.4099 15.778C22.0646 15.6427 21.7794 15.3891 21.6058 15.0631C21.3651 14.6645 21.2342 14.21 21.2264 13.7452C21.2186 13.2804 21.3342 12.8218 21.5614 12.4155C21.7009 12.1595 21.8991 11.9397 22.1398 11.7737C22.3806 11.6078 22.6572 11.5003 22.9475 11.4601C23.6805 11.3255 24.3802 11.3961 24.9821 11.8727C25.5841 12.3493 25.7796 12.967 25.7796 13.7327ZM24.2469 13.2075C24.2272 13.0806 24.1808 12.9592 24.1108 12.8513C24.0407 12.7433 23.9486 12.6512 23.8404 12.5809C23.4695 12.3272 23.0274 12.5589 22.8142 12.9715C22.6633 13.4486 22.6782 13.9622 22.8564 14.4299C22.9054 14.5704 22.9986 14.6915 23.1222 14.7753C23.2458 14.8591 23.3932 14.9012 23.5428 14.8954C23.6714 14.9101 23.8012 14.8798 23.9098 14.8097C24.0185 14.7397 24.0992 14.6342 24.138 14.5115C24.2869 14.0934 24.3244 13.6443 24.2469 13.2075Z" fill="#3BB9B7"/>
<path d="M20.6529 15.8662H19.2268V15.6102C19.2268 13.8628 19.2268 12.1153 19.2268 10.3679C19.2268 10.0435 19.2268 10.0435 19.5445 10.0457C19.8621 10.0479 20.1242 10.059 20.4108 10.0457C20.6084 10.0457 20.6551 10.1053 20.6551 10.2884C20.6551 12.0227 20.6551 13.7591 20.6551 15.4933L20.6529 15.8662Z" fill="#3BB9B7"/>
</svg>
