<svg width="46" height="46" viewBox="0 0 46 46" fill="none" xmlns="http://www.w3.org/2000/svg">
<circle cx="23" cy="23" r="23" fill="#3BB9B7"/>
<path d="M14.82 33.392C12.384 33.392 10.452 32.468 9.052 30.62C7.68 28.744 6.98 26.28 6.98 23.2C6.98 20.12 7.68 17.656 9.052 15.808C10.452 13.932 12.384 13.008 14.82 13.008C17.284 13.008 19.216 13.932 20.588 15.808C21.96 17.656 22.66 20.12 22.66 23.2C22.66 26.28 21.96 28.744 20.588 30.62C19.216 32.468 17.284 33.392 14.82 33.392ZM18.824 23.2C18.824 19.028 17.424 16.76 14.82 16.76C12.216 16.76 10.844 19.028 10.844 23.2C10.844 27.372 12.216 29.612 14.82 29.612C17.424 29.612 18.824 27.344 18.824 23.2ZM36.3958 16.592L32.7278 21.352C35.3878 22.136 37.2078 24.18 37.2078 26.952C37.2078 28.968 36.5358 30.536 35.1638 31.684C33.8198 32.832 32.1678 33.392 30.2078 33.392C27.1558 33.392 24.5798 31.964 23.4878 29.248L26.7918 27.344C27.2678 28.856 28.4158 29.612 30.2078 29.612C32.1958 29.612 33.3438 28.604 33.3438 26.952C33.3438 25.356 32.1958 24.292 30.2078 24.292H29.3678L27.8838 22.052L31.7478 17.012H24.0758V13.4H36.3958V16.592Z" fill="white"/>
</svg>
