<svg width="60" height="60" viewBox="0 0 60 60" fill="none" xmlns="http://www.w3.org/2000/svg">
<rect width="60" height="60" rx="5" fill="white"/>
<g clip-path="url(#clip0_2_30)">
<path d="M30 53C23.9022 52.9928 18.0562 50.5673 13.7445 46.2556C9.43267 41.9438 7.00716 36.0978 7 30C7.00716 23.9022 9.43267 18.0562 13.7445 13.7444C18.0562 9.43266 23.9022 7.00716 30 7C36.0978 7.00716 41.9438 9.43266 46.2555 13.7444C50.5673 18.0562 52.9928 23.9022 53 30C52.9928 36.0978 50.5673 41.9438 46.2555 46.2556C41.9438 50.5673 36.0978 52.9928 30 53ZM30 10.6078C24.8586 10.6134 19.9294 12.6583 16.2938 16.2938C12.6583 19.9293 10.6134 24.8586 10.6078 30C10.6134 35.1414 12.6583 40.0707 16.2938 43.7062C19.9294 47.3417 24.8586 49.3866 30 49.3922C35.1414 49.3866 40.0706 47.3417 43.7062 43.7062C47.3417 40.0707 49.3866 35.1414 49.3922 30C49.3866 24.8586 47.3417 19.9293 43.7062 16.2938C40.0706 12.6583 35.1414 10.6134 30 10.6078Z" fill="#0B63D8"/>
<path d="M31.2748 16.9516C31.8566 17.5365 32.57 17.9736 33.3553 18.2264C32.5705 18.4804 31.8574 18.9173 31.2748 19.5012C30.6909 20.0838 30.2539 20.7969 30 21.5817C29.7461 20.7969 29.3091 20.0838 28.7252 19.5012C28.1426 18.9173 27.4295 18.4804 26.6447 18.2264C27.43 17.9736 28.1434 17.5365 28.7252 16.9516C29.3096 16.3706 29.7467 15.6583 30 14.8741C30.2533 15.6583 30.6904 16.3706 31.2748 16.9516Z" fill="#0B63D8"/>
<path d="M31.2748 41.6052C31.8566 42.1901 32.57 42.6272 33.3553 42.88C32.5705 43.134 31.8574 43.5709 31.2748 44.1548C30.6909 44.7374 30.2539 45.4505 30 46.2353C29.7461 45.4505 29.3091 44.7374 28.7252 44.1548C28.1426 43.5709 27.4295 43.134 26.6447 42.88C27.43 42.6272 28.1434 42.1901 28.7252 41.6052C29.3096 41.0242 29.7467 40.3119 30 39.5277C30.2533 40.3119 30.6904 41.0242 31.2748 41.6052Z" fill="#0B63D8"/>
<path d="M37.817 37.6667H22.4837C20.69 37.6651 18.9703 36.9519 17.702 35.6836C16.4338 34.4153 15.7205 32.6956 15.719 30.902C15.7205 29.1083 16.4338 27.3886 17.702 26.1203C18.9703 24.8521 20.69 24.1388 22.4837 24.1373H37.817C39.6106 24.1388 41.3303 24.8521 42.5986 26.1203C43.8669 27.3886 44.5801 29.1083 44.5817 30.902C44.5801 32.6956 43.8669 34.4153 42.5986 35.6836C41.3303 36.9519 39.6106 37.6651 37.817 37.6667ZM22.4837 27.7451C21.6467 27.7459 20.8442 28.0787 20.2523 28.6706C19.6604 29.2625 19.3276 30.065 19.3268 30.902C19.3276 31.739 19.6604 32.5415 20.2523 33.1333C20.8442 33.7252 21.6467 34.058 22.4837 34.0588H37.817C38.654 34.058 39.4565 33.7252 40.0484 33.1333C40.6402 32.5415 40.9731 31.739 40.9739 30.902C40.9731 30.065 40.6402 29.2625 40.0484 28.6706C39.4565 28.0787 38.654 27.7459 37.817 27.7451H22.4837Z" fill="#0B63D8"/>
<path d="M30.1503 25.9412H37.817C39.1327 25.9412 40.3945 26.4638 41.3248 27.3942C42.2551 28.3245 42.7778 29.5863 42.7778 30.902C42.7778 32.2176 42.2551 33.4794 41.3248 34.4098C40.3945 35.3401 39.1327 35.8627 37.817 35.8627H30.1503V25.9412Z" fill="#0B63D8"/>
</g>
<defs>
<clipPath id="clip0_2_30">
<rect width="46" height="46" fill="white" transform="translate(7 7)"/>
</clipPath>
</defs>
</svg>
