<svg width="30" height="30" viewBox="0 0 30 30" fill="none" xmlns="http://www.w3.org/2000/svg">
<path d="M15 29.7861C23.2843 29.7861 30 23.1183 30 14.8931C30 6.66786 23.2843 0 15 0C6.71572 0 0 6.66786 0 14.8931C0 23.1183 6.71572 29.7861 15 29.7861Z" fill="#3BB9B7"/>
<path d="M14.9999 7.20622C17.5222 7.20622 17.8199 7.20622 18.8177 7.25917C19.4166 7.26582 20.0099 7.37556 20.571 7.58351C20.9777 7.73995 21.3471 7.97891 21.6555 8.28512C21.9639 8.59133 22.2046 8.95805 22.3621 9.36186C22.5716 9.91902 22.6821 10.508 22.6888 11.1027C22.7333 12.0934 22.7421 12.389 22.7421 14.8933C22.7421 17.3975 22.7421 17.6932 22.6888 18.6816C22.6826 19.2763 22.5721 19.8654 22.3621 20.4224C22.2051 20.8268 21.9646 21.1941 21.6561 21.5007C21.3477 21.8073 20.9781 22.0466 20.571 22.203C20.0093 22.4088 19.4164 22.5177 18.8177 22.5251C17.8222 22.5715 17.5222 22.5803 14.9999 22.5803C12.4777 22.5803 12.1799 22.5803 11.1844 22.5251C10.5857 22.518 9.99266 22.409 9.43105 22.203C9.02493 22.048 8.65586 21.8106 8.34744 21.5059C8.03902 21.2012 7.79804 20.8359 7.63992 20.4335C7.43214 19.8759 7.32241 19.2871 7.31548 18.6926C7.26882 17.7042 7.25993 17.4085 7.25993 14.9043C7.25993 12.4 7.25993 12.1044 7.31548 11.1137C7.32293 10.5193 7.43265 9.93057 7.63992 9.37289C7.79749 8.96873 8.03844 8.60175 8.34728 8.2955C8.65611 7.98924 9.02602 7.75048 9.43327 7.59454C9.99436 7.38634 10.5876 7.27659 11.1866 7.2702C12.1821 7.22608 12.4799 7.21725 15.0021 7.21725M15.0021 5.52717C12.4377 5.52717 12.1133 5.5382 11.1088 5.58232C10.3248 5.6003 9.54949 5.74948 8.81549 6.0236C8.18841 6.26509 7.61893 6.63369 7.14334 7.10589C6.66775 7.57809 6.29647 8.14353 6.05325 8.76613C5.77563 9.49447 5.62532 10.2645 5.60881 11.0431C5.56214 12.0426 5.55103 12.3669 5.55103 14.9087C5.55103 17.4504 5.56214 17.777 5.60881 18.7743C5.62592 19.5528 5.77621 20.3228 6.05325 21.0513C6.2973 21.6734 6.66883 22.2384 7.14431 22.7105C7.6198 23.1826 8.1889 23.5515 8.81549 23.7938C9.54922 24.0689 10.3247 24.2181 11.1088 24.2351C12.1155 24.2814 12.4421 24.2924 15.0021 24.2924C17.5621 24.2924 17.891 24.2814 18.8977 24.2351C19.6811 24.2184 20.4559 24.0692 21.1888 23.7938C21.8159 23.5523 22.3854 23.1837 22.861 22.7115C23.3365 22.2393 23.7078 21.6739 23.951 21.0513C24.2271 20.3225 24.3774 19.5527 24.3955 18.7743C24.4399 17.7748 24.451 17.4504 24.451 14.9087C24.451 12.3669 24.451 12.0404 24.3955 11.0431C24.3778 10.2647 24.2276 9.49478 23.951 8.76613C23.7113 8.14076 23.3422 7.57223 22.8676 7.09719C22.393 6.62215 21.8234 6.25117 21.1955 6.00815C20.4623 5.73379 19.6877 5.58459 18.9044 5.56688C17.8955 5.52275 17.571 5.51172 15.0088 5.51172L15.0021 5.52717Z" fill="white"/>
<path d="M15.0002 10.0767C14.0412 10.0789 13.1044 10.3632 12.3081 10.8938C11.5118 11.4243 10.8917 12.1773 10.5262 13.0576C10.1608 13.9379 10.0663 14.906 10.2547 15.8396C10.4432 16.7732 10.906 17.6304 11.5849 18.3029C12.2638 18.9754 13.1282 19.433 14.0689 19.618C15.0096 19.8029 15.9845 19.7069 16.8702 19.342C17.756 18.9772 18.513 18.3598 19.0456 17.568C19.5782 16.7761 19.8624 15.8454 19.8624 14.8932C19.8627 14.2597 19.737 13.6323 19.4926 13.0471C19.2483 12.4619 18.8899 11.9303 18.4382 11.4829C17.9865 11.0354 17.4504 10.6809 16.8604 10.4396C16.2704 10.1983 15.6383 10.0749 15.0002 10.0767ZM15.0002 18.0197C14.3773 18.0197 13.7684 17.8362 13.2505 17.4926C12.7326 17.149 12.329 16.6605 12.0907 16.0891C11.8525 15.5177 11.7902 14.889 11.9119 14.2825C12.0336 13.6759 12.3337 13.1189 12.7743 12.6817C13.2149 12.2445 13.7763 11.947 14.3872 11.8266C14.9982 11.7062 15.6314 11.7684 16.2067 12.0054C16.7821 12.2424 17.2737 12.6434 17.6194 13.1579C17.9652 13.6723 18.1495 14.277 18.1491 14.8954C18.1488 15.3057 18.0671 15.7119 17.9087 16.0908C17.7503 16.4698 17.5182 16.814 17.2258 17.1039C16.9334 17.3938 16.5864 17.6237 16.2045 17.7805C15.8226 17.9372 15.4134 18.0177 15.0002 18.0174V18.0197Z" fill="white"/>
<path d="M20.0423 11.0148C20.6682 11.0148 21.1756 10.5103 21.1756 9.88803C21.1756 9.26572 20.6682 8.76123 20.0423 8.76123C19.4163 8.76123 18.9089 9.26572 18.9089 9.88803C18.9089 10.5103 19.4163 11.0148 20.0423 11.0148Z" fill="white"/>
</svg>
