<svg width="60" height="60" viewBox="0 0 60 60" fill="none" xmlns="http://www.w3.org/2000/svg">
<rect width="60" height="60" rx="5" fill="white"/>
<g clip-path="url(#clip0_2_22)">
<path d="M10.6973 31.0462C10.4699 26.9164 11.5888 22.8244 13.8859 19.385C15.8767 16.335 18.7079 13.9265 22.0376 12.4506C24.5324 11.3215 27.2389 10.7363 29.9773 10.7337C30.668 10.7345 31.3583 10.7698 32.0455 10.8396C33.7388 11.0067 35.4008 11.4071 36.9843 12.0297C37.0105 12.0438 37.034 12.0622 37.054 12.0842C37.0772 12.108 37.095 12.1366 37.106 12.168C37.117 12.1994 37.1209 12.2328 37.1176 12.2659C37.115 12.2983 37.105 12.3297 37.0881 12.3576C37.0713 12.3855 37.0482 12.409 37.0207 12.4264C36.9978 12.4444 36.9723 12.4587 36.945 12.4688C36.6588 12.5731 36.3665 12.6601 36.0698 12.7292C35.9336 12.7655 35.7973 12.7988 35.6641 12.8382C35.4318 12.8948 35.2132 12.9975 35.0214 13.1402C34.8295 13.2829 34.6682 13.4626 34.5471 13.6687C34.4259 13.8749 34.3474 14.1032 34.3161 14.3403C34.2848 14.5773 34.3015 14.8182 34.365 15.0487C34.4635 15.4328 34.6873 15.7731 35.0011 16.0155C35.3149 16.258 35.7006 16.3888 36.0971 16.3871C36.2639 16.3874 36.4299 16.365 36.5907 16.3205C37.8201 15.9975 39.0495 15.6685 40.2789 15.3334L42.8528 14.6429C43.182 14.5625 43.4804 14.3875 43.7113 14.1394C43.9421 13.8913 44.0953 13.5811 44.1519 13.247C44.2247 12.9356 44.2063 12.6098 44.0989 12.3085C43.9915 12.0073 43.7996 11.7433 43.5462 11.5482C43.3706 11.4018 43.1877 11.2643 42.9982 11.1364C39.1561 8.49468 34.6154 7.0549 29.9531 7H29.9167C29.5231 7.03937 29.1264 7.0757 28.7297 7.10901C27.8667 7.18471 26.9764 7.26041 26.1104 7.41182C21.5493 8.16664 17.3332 10.3138 14.0404 13.5589C9.60114 17.883 7.23316 23.2488 7.00606 29.4595C6.87535 32.8085 7.53077 36.1416 8.91982 39.1918C9.58818 40.5771 10.3479 41.9165 11.1939 43.201C11.511 43.6487 11.9598 43.9864 12.4778 44.167C12.6206 44.2188 12.7712 44.2454 12.923 44.2457C13.2201 44.2328 13.5089 44.1442 13.7622 43.9884C14.0155 43.8326 14.2248 43.6148 14.3704 43.3555C14.5699 43.0313 14.6636 42.6532 14.6387 42.2734C14.6137 41.8937 14.4713 41.531 14.2311 41.2358C12.0952 38.2511 10.8679 34.7125 10.6973 31.0462Z" fill="#0B63D8"/>
<path d="M52.1885 24.0816C51.4799 21.4794 50.3241 19.0202 48.7728 16.8141C48.6234 16.5558 48.4169 16.3351 48.1692 16.1687C47.9215 16.0024 47.6391 15.8948 47.3435 15.8542C47.2749 15.8498 47.2061 15.8498 47.1376 15.8542C46.8218 15.8504 46.511 15.9331 46.2388 16.0932C45.9666 16.2533 45.7434 16.4848 45.5932 16.7626C45.2026 17.4409 45.2632 18.1465 45.7689 18.8823C48.0845 22.1221 49.3305 26.0041 49.333 29.9864C49.336 32.7153 48.7579 35.4136 47.6372 37.9018C46.1147 41.3897 43.5837 44.3425 40.3698 46.3805C37.8375 47.9928 34.9627 48.9894 31.9758 49.2906C31.3039 49.3605 30.6287 49.3949 29.9531 49.3935C27.5702 49.3817 25.2096 48.9331 22.9884 48.0702C22.8949 48.0333 22.8125 47.9728 22.7492 47.8946C22.8072 47.7896 22.9039 47.7114 23.0187 47.6766C23.2609 47.5857 23.5093 47.5191 23.7757 47.4464C23.9847 47.3919 24.2027 47.3344 24.4177 47.2617C24.6482 47.1971 24.8632 47.0866 25.05 46.9368C25.2367 46.7871 25.3912 46.6011 25.5044 46.3902C25.6175 46.1792 25.6868 45.9476 25.7082 45.7092C25.7296 45.4708 25.7027 45.2305 25.6289 45.0028C25.5173 44.6317 25.2872 44.3074 24.9739 44.0794C24.6606 43.8514 24.2812 43.7322 23.8938 43.74C23.7283 43.7401 23.5634 43.7615 23.4033 43.8036C21.4895 44.2972 19.4667 44.8362 17.1835 45.4509C16.9132 45.528 16.6631 45.6634 16.4507 45.8476C16.2445 46.0175 16.0801 46.2327 15.9704 46.4763C15.8606 46.72 15.8085 46.9856 15.8179 47.2526C15.8578 47.5842 15.973 47.9022 16.1546 48.1824C16.3361 48.4627 16.5793 48.6977 16.8656 48.8697C20.6945 51.5728 25.2661 53.0251 29.9531 53.0272H29.9985C34.4958 53.0675 38.8975 51.7285 42.6106 49.1906C49.2451 44.6485 52.7396 38.2137 53 30.0379C52.9857 28.0259 52.713 26.024 52.1885 24.0816Z" fill="#0B63D8"/>
<path d="M30.1136 17.5469C28.4635 17.5293 26.8263 17.8385 25.2963 18.4567C23.7663 19.0749 22.3739 19.9898 21.1992 21.1487C20.0245 22.3077 19.0909 23.6877 18.4521 25.2091C17.8133 26.7306 17.482 28.3635 17.4773 30.0136C17.4106 36.8874 23.1095 42.5773 29.9682 42.5924C33.2902 42.5916 36.4763 41.2732 38.8276 38.9265C41.1789 36.5797 42.5034 33.3962 42.5106 30.0742C42.5108 26.7742 41.2089 23.6074 38.8876 21.2618C36.5664 18.9162 33.4134 17.5812 30.1136 17.5469ZM35.543 28.33C33.5171 30.3649 31.458 32.3665 29.4686 34.4377C28.3906 35.5581 27.0037 35.5581 25.9832 34.3802C25.4715 33.7927 24.878 33.2779 24.345 32.7087C23.9944 32.3326 23.8027 31.8355 23.81 31.3214C23.8174 30.8073 24.0231 30.3159 24.3844 29.95C24.7551 29.583 25.253 29.3728 25.7746 29.3632C26.2962 29.3537 26.8014 29.5454 27.1854 29.8986C27.358 30.056 27.5366 30.2014 27.791 30.4406L31.3218 26.8735C31.7972 26.395 32.2635 25.9136 32.751 25.4503C32.9394 25.2504 33.1671 25.0918 33.4198 24.9844C33.6725 24.877 33.9448 24.8231 34.2194 24.8262C34.494 24.8294 34.765 24.8894 35.0152 25.0025C35.2654 25.1157 35.4894 25.2795 35.6732 25.4836C36.0291 25.8803 36.215 26.401 36.1906 26.9334C36.1663 27.4659 35.9337 27.9675 35.543 28.33Z" fill="#0B63D8"/>
</g>
<defs>
<clipPath id="clip0_2_22">
<rect width="46" height="46.0273" fill="white" transform="translate(7 7)"/>
</clipPath>
</defs>
</svg>
