<svg width="60" height="60" viewBox="0 0 60 60" fill="none" xmlns="http://www.w3.org/2000/svg">
<rect width="60" height="60" rx="5" fill="white"/>
<g clip-path="url(#clip0_2_16)">
<path d="M30 53C23.9022 52.9928 18.0562 50.5673 13.7445 46.2556C9.43267 41.9438 7.00716 36.0978 7 30C7.00716 23.9022 9.43267 18.0562 13.7445 13.7444C18.0562 9.43266 23.9022 7.00716 30 7C36.0978 7.00716 41.9438 9.43266 46.2555 13.7444C50.5673 18.0562 52.9928 23.9022 53 30C52.9928 36.0978 50.5673 41.9438 46.2555 46.2556C41.9438 50.5673 36.0978 52.9928 30 53ZM30 10.6078C24.8586 10.6134 19.9294 12.6583 16.2938 16.2938C12.6583 19.9293 10.6134 24.8586 10.6078 30C10.6134 35.1414 12.6583 40.0707 16.2938 43.7062C19.9294 47.3417 24.8586 49.3866 30 49.3922C35.1414 49.3866 40.0706 47.3417 43.7062 43.7062C47.3417 40.0707 49.3866 35.1414 49.3922 30C49.3866 24.8586 47.3417 19.9293 43.7062 16.2938C40.0706 12.6583 35.1414 10.6134 30 10.6078Z" fill="#0B63D8"/>
<path d="M44.8042 27.4745C45.386 28.0594 46.0994 28.4965 46.8847 28.7493C46.0999 29.0032 45.3868 29.4402 44.8042 30.0241C44.2203 30.6067 43.7834 31.3198 43.5294 32.1046C43.2755 31.3198 42.8385 30.6067 42.2546 30.0241C41.672 29.4402 40.9589 29.0032 40.1741 28.7493C40.9594 28.4965 41.6728 28.0594 42.2546 27.4745C42.839 26.8935 43.2761 26.1812 43.5294 25.397C43.7827 26.1812 44.2198 26.8935 44.8042 27.4745Z" fill="#0B63D8"/>
<path d="M19.6605 22.1499C20.1568 22.6465 20.7636 23.0185 21.4314 23.2353C20.7636 23.4521 20.1568 23.8241 19.6605 24.3206C19.1639 24.8169 18.792 25.4238 18.5752 26.0915C18.3583 25.4238 17.9864 24.8169 17.4898 24.3206C16.9936 23.8241 16.3867 23.4521 15.719 23.2353C16.3867 23.0185 16.9936 22.6465 17.4898 22.1499C17.9864 21.6537 18.3583 21.0468 18.5752 20.3791C18.792 21.0468 19.1639 21.6537 19.6605 22.1499Z" fill="#0B63D8"/>
<path d="M30.7787 19.1374L30.3007 18.7255L29.8226 19.1374C29.4438 19.4651 20.5324 27.216 20.5324 32.9404C20.5324 35.7696 21.5396 38.1868 23.4427 39.9276C25.2046 41.5391 27.6519 42.426 30.3007 42.426C32.9494 42.426 35.3967 41.5241 37.1586 39.9276C39.0617 38.1868 40.0689 35.7696 40.0689 32.9404C40.0719 27.216 31.1575 19.4651 30.7787 19.1374ZM27.4715 36.0461C26.9749 36.5424 26.603 37.1493 26.3861 37.817C26.1693 37.1493 25.7974 36.5424 25.3008 36.0461C24.8062 35.5503 24.2015 35.1785 23.5359 34.9608C24.2037 34.744 24.8105 34.372 25.3068 33.8754C25.8034 33.3792 26.1753 32.7723 26.3922 32.1046C26.609 32.7723 26.9809 33.3792 27.4775 33.8754C27.9738 34.372 28.5806 34.744 29.2484 34.9608C28.5806 35.1776 27.9738 35.5495 27.4775 36.0461H27.4715Z" fill="#0B63D8"/>
</g>
<defs>
<clipPath id="clip0_2_16">
<rect width="46" height="46" fill="white" transform="translate(7 7)"/>
</clipPath>
</defs>
</svg>
