<svg width="30" height="30" viewBox="0 0 30 30" fill="none" xmlns="http://www.w3.org/2000/svg">
<path d="M15 29.7861C23.2843 29.7861 30 23.1183 30 14.8931C30 6.66786 23.2843 0 15 0C6.71573 0 0 6.66786 0 14.8931C0 23.1183 6.71573 29.7861 15 29.7861Z" fill="#3BB9B7"/>
<path d="M24.5822 10.1142C24.4688 9.69054 24.2447 9.30412 23.9325 8.99414C23.6203 8.68416 23.2311 8.46164 22.8044 8.34912C21.2488 7.93432 14.9911 7.93433 14.9911 7.93433C14.9911 7.93433 8.73554 7.93432 7.17776 8.34912C6.75072 8.46101 6.36116 8.68333 6.04886 8.9934C5.73655 9.30348 5.51268 9.69023 5.39998 10.1142C4.98221 11.6587 4.98218 14.8933 4.98218 14.8933C4.98218 14.8933 4.98221 18.1234 5.39998 19.6723C5.5133 20.096 5.73741 20.4824 6.04961 20.7924C6.36182 21.1023 6.75103 21.3249 7.17776 21.4374C8.73332 21.8522 14.9911 21.8522 14.9911 21.8522C14.9911 21.8522 21.2444 21.8522 22.8044 21.4374C23.2308 21.3242 23.6197 21.1015 23.9318 20.7916C24.2439 20.4818 24.4682 20.0957 24.5822 19.6723C24.9999 18.1278 25 14.8933 25 14.8933C25 14.8933 24.9999 11.6609 24.5822 10.1142ZM13 17.8719V11.9146L18.1955 14.8933L13 17.8719Z" fill="white"/>
</svg>
