<svg width="46" height="46" viewBox="0 0 46 46" fill="none" xmlns="http://www.w3.org/2000/svg">
<circle cx="23" cy="23" r="23" fill="#3BB9B7"/>
<path d="M14.82 33.392C12.384 33.392 10.452 32.468 9.052 30.62C7.68 28.744 6.98 26.28 6.98 23.2C6.98 20.12 7.68 17.656 9.052 15.808C10.452 13.932 12.384 13.008 14.82 13.008C17.284 13.008 19.216 13.932 20.588 15.808C21.96 17.656 22.66 20.12 22.66 23.2C22.66 26.28 21.96 28.744 20.588 30.62C19.216 32.468 17.284 33.392 14.82 33.392ZM18.824 23.2C18.824 19.028 17.424 16.76 14.82 16.76C12.216 16.76 10.844 19.028 10.844 23.2C10.844 27.372 12.216 29.612 14.82 29.612C17.424 29.612 18.824 27.344 18.824 23.2ZM23.4538 17.096V13.4H36.1098V16.676L29.4738 33H25.3858L31.8258 17.096H23.4538Z" fill="white"/>
</svg>
