<svg width="51" height="36" viewBox="0 0 51 36" fill="none" xmlns="http://www.w3.org/2000/svg">
<path d="M14.12 35.672C9.944 35.672 6.632 34.088 4.232 30.92C1.88 27.704 0.68 23.48 0.68 18.2C0.68 12.92 1.88 8.696 4.232 5.528C6.632 2.312 9.944 0.727998 14.12 0.727998C18.344 0.727998 21.656 2.312 24.008 5.528C26.36 8.696 27.56 12.92 27.56 18.2C27.56 23.48 26.36 27.704 24.008 30.92C21.656 34.088 18.344 35.672 14.12 35.672ZM20.984 18.2C20.984 11.048 18.584 7.16 14.12 7.16C9.656 7.16 7.304 11.048 7.304 18.2C7.304 25.352 9.656 29.192 14.12 29.192C18.584 29.192 20.984 25.304 20.984 18.2ZM28.9209 7.736V1.4H50.6169V7.016L39.2409 35H32.2329L43.2729 7.736H28.9209Z" fill="#3BB9B7"/>
</svg>
