<svg width="55" height="36" viewBox="0 0 55 36" fill="none" xmlns="http://www.w3.org/2000/svg">
<path d="M14.12 35.672C9.944 35.672 6.632 34.088 4.232 30.92C1.88 27.704 0.68 23.48 0.68 18.2C0.68 12.92 1.88 8.696 4.232 5.528C6.632 2.312 9.944 0.727998 14.12 0.727998C18.344 0.727998 21.656 2.312 24.008 5.528C26.36 8.696 27.56 12.92 27.56 18.2C27.56 23.48 26.36 27.704 24.008 30.92C21.656 34.088 18.344 35.672 14.12 35.672ZM20.984 18.2C20.984 11.048 18.584 7.16 14.12 7.16C9.656 7.16 7.304 11.048 7.304 18.2C7.304 25.352 9.656 29.192 14.12 29.192C18.584 29.192 20.984 25.304 20.984 18.2ZM50.3544 1.4L42.9144 12.296C46.4184 12.392 49.2504 13.544 51.4104 15.704C53.5704 17.864 54.6744 20.6 54.6744 23.96C54.6744 27.368 53.5224 30.2 51.2664 32.408C49.0104 34.568 46.0824 35.672 42.4824 35.672C38.8824 35.672 35.9544 34.568 33.6984 32.408C31.4424 30.248 30.3384 27.416 30.3384 23.96C30.3384 21.416 31.0104 19.16 32.3064 17.192L42.7704 1.4H50.3544ZM48.0984 23.96C48.0984 20.696 45.6984 18.536 42.4824 18.536C39.2664 18.536 36.9144 20.648 36.9144 23.96C36.9144 27.272 39.2664 29.432 42.4824 29.432C45.6984 29.432 48.0984 27.272 48.0984 23.96Z" fill="#3BB9B7"/>
</svg>
