<svg width="15" height="17" viewBox="0 0 15 17" fill="none" xmlns="http://www.w3.org/2000/svg">
<path d="M14.4471 14.5886C14.4652 14.7489 14.449 14.9112 14.3997 15.0649C14.3504 15.2185 14.2693 15.36 14.1614 15.48C14.0533 15.5998 13.921 15.6954 13.7733 15.7604C13.6255 15.8254 13.4656 15.8584 13.3043 15.8572H2.14999C1.98858 15.8584 1.82876 15.8254 1.68102 15.7604C1.53328 15.6954 1.40098 15.5998 1.29285 15.48C1.185 15.36 1.10378 15.2185 1.05454 15.0649C1.00529 14.9112 0.989133 14.7489 1.00713 14.5886L2.01285 5.57144H13.4414L14.4471 14.5886Z" stroke="#063472" stroke-linecap="round" stroke-linejoin="round"/>
<path d="M4.87 5.57143V3.85714C4.87 3.09938 5.17101 2.37265 5.70683 1.83683C6.24265 1.30102 6.96938 1 7.72714 1C8.4849 1 9.21163 1.30102 9.74745 1.83683C10.2833 2.37265 10.5843 3.09938 10.5843 3.85714V5.57143" stroke="#063472" stroke-linecap="round" stroke-linejoin="round"/>
</svg>
