<svg width="30" height="30" viewBox="0 0 30 30" fill="none" xmlns="http://www.w3.org/2000/svg">
<path d="M30 14.8927C29.9999 12.0461 29.1782 9.25922 27.6322 6.86199C26.0862 4.46476 23.8806 2.55766 21.2766 1.36654C18.6727 0.175416 15.7795 -0.249826 12.9396 0.141174C10.0998 0.532174 7.43231 1.72304 5.25307 3.57273C3.07383 5.42242 1.47412 7.85345 0.643426 10.5779C-0.187271 13.3024 -0.214155 16.2061 0.565925 18.9453C1.34601 21.6845 2.90038 24.1443 5.04498 26.0335C7.18958 27.9227 9.83456 29.1621 12.6667 29.6049V19.1974H8.85778V14.8927H12.6667V11.6074C12.6667 7.87422 14.9044 5.81125 18.3311 5.81125C19.456 5.82674 20.5783 5.92408 21.6889 6.10249V9.76729H19.7978C17.9333 9.76729 17.3533 10.9168 17.3533 12.095V14.8883H21.4956L20.8289 19.193H17.3333V29.6005C20.8626 29.0477 24.0774 27.2628 26.3994 24.5666C28.7213 21.8705 29.9981 18.4401 30 14.8927Z" fill="#3BB9B7"/>
<path d="M20.84 19.1974L21.5066 14.8927H17.3466V12.0995C17.3466 10.9212 17.9266 9.77171 19.7911 9.77171H21.6822V6.10692C20.5716 5.9285 19.4493 5.83116 18.3244 5.81567C14.8977 5.81567 12.66 7.87864 12.66 11.6118V14.8927H8.85107V19.1974H12.66V29.6049C14.2127 29.8461 15.7938 29.8461 17.3466 29.6049V19.1974H20.84Z" fill="white"/>
</svg>
