<svg width="78" height="48" viewBox="0 0 78 48" fill="none" xmlns="http://www.w3.org/2000/svg">
<path d="M0 24C0 10.7452 10.7452 0 24 0H78V48H24C10.7452 48 0 37.2548 0 24V24Z" fill="#0B63D8"/>
<path d="M25.6386 7C15.898 7 7.99573 14.4285 7.99573 23.5928C7.99573 28.7306 10.4785 33.3235 14.3756 36.3669V43L20.636 39.5113C22.2621 39.9608 23.9416 40.1882 25.6286 40.1871C35.3706 40.1871 43.2715 32.7572 43.2715 23.5928C43.2715 14.4285 35.3806 7 25.6386 7ZM27.5366 29.3382L22.9836 24.6215L14.1764 29.3382L23.8928 19.2803L28.4458 23.9969L37.1392 19.2803L27.5366 29.3382Z" fill="white"/>
</svg>
