<svg width="46" height="46" viewBox="0 0 46 46" fill="none" xmlns="http://www.w3.org/2000/svg">
<circle cx="23" cy="23" r="23" fill="#3BB9B7"/>
<path d="M14.82 33.392C12.384 33.392 10.452 32.468 9.052 30.62C7.68 28.744 6.98 26.28 6.98 23.2C6.98 20.12 7.68 17.656 9.052 15.808C10.452 13.932 12.384 13.008 14.82 13.008C17.284 13.008 19.216 13.932 20.588 15.808C21.96 17.656 22.66 20.12 22.66 23.2C22.66 26.28 21.96 28.744 20.588 30.62C19.216 32.468 17.284 33.392 14.82 33.392ZM18.824 23.2C18.824 19.028 17.424 16.76 14.82 16.76C12.216 16.76 10.844 19.028 10.844 23.2C10.844 27.372 12.216 29.612 14.82 29.612C17.424 29.612 18.824 27.344 18.824 23.2ZM37.0045 33H23.9005V30.116L30.5925 23.228C32.0765 21.66 32.8325 20.344 32.8325 19.308C32.8325 17.768 31.7685 16.76 30.2845 16.76C28.8005 16.76 27.7085 17.516 27.0085 19.056L23.7605 17.152C24.9925 14.464 27.4565 13.008 30.2285 13.008C31.9925 13.008 33.5325 13.568 34.7925 14.688C36.0525 15.78 36.6965 17.292 36.6965 19.168C36.6965 21.212 35.6325 23.284 33.4765 25.44L29.6405 29.276H37.0045V33Z" fill="white"/>
</svg>
