<svg width="108" height="88" viewBox="0 0 108 88" fill="none" xmlns="http://www.w3.org/2000/svg">
<rect y="20" width="108" height="60" rx="10" fill="url(#paint0_linear_306_235)"/>
<path d="M29.2884 59.2H31.2764V69H29.3584V62.644L26.6004 67.194H26.3764L23.6184 62.658V69H21.6864V59.2H23.6744L26.4884 63.834L29.2884 59.2ZM37.6384 65.78V62H39.4444V69H37.6384V68.216C37.2044 68.874 36.5044 69.196 35.5524 69.196C34.7824 69.196 34.1524 68.944 33.6484 68.426C33.1584 67.908 32.9064 67.208 32.9064 66.298V62H34.7124V66.074C34.7124 67.012 35.2584 67.516 36.0984 67.516C37.0364 67.516 37.6384 66.942 37.6384 65.78ZM46.4185 62.826V62H48.2245V69H46.4185V68.174C45.8725 68.86 45.1165 69.196 44.1365 69.196C43.1985 69.196 42.4005 68.846 41.7285 68.132C41.0705 67.418 40.7345 66.536 40.7345 65.5C40.7345 64.464 41.0705 63.596 41.7285 62.882C42.4005 62.168 43.1985 61.804 44.1365 61.804C45.1165 61.804 45.8725 62.14 46.4185 62.826ZM43.0865 66.928C43.4505 67.292 43.9125 67.474 44.4725 67.474C45.0325 67.474 45.4945 67.292 45.8585 66.928C46.2365 66.55 46.4185 66.074 46.4185 65.5C46.4185 64.926 46.2365 64.45 45.8585 64.086C45.4945 63.708 45.0325 63.526 44.4725 63.526C43.9125 63.526 43.4505 63.708 43.0865 64.086C42.7225 64.45 42.5405 64.926 42.5405 65.5C42.5405 66.074 42.7225 66.55 43.0865 66.928ZM57.2541 61.804C58.0241 61.804 58.6541 62.056 59.1441 62.574C59.6481 63.092 59.9001 63.792 59.9001 64.702V69H58.0941V64.926C58.0941 63.988 57.5481 63.484 56.7081 63.484C55.7701 63.484 55.1681 64.058 55.1681 65.22V69H53.3621V59.2H55.1681V62.784C55.6021 62.126 56.3021 61.804 57.2541 61.804ZM65.4602 59.2L66.5802 61.118H64.8442L63.2902 59.2H65.4602ZM66.7622 62.826V62H68.5682V69H66.7622V68.174C66.2162 68.86 65.4602 69.196 64.4802 69.196C63.5422 69.196 62.7442 68.846 62.0722 68.132C61.4142 67.418 61.0782 66.536 61.0782 65.5C61.0782 64.464 61.4142 63.596 62.0722 62.882C62.7442 62.168 63.5422 61.804 64.4802 61.804C65.4602 61.804 66.2162 62.14 66.7622 62.826ZM63.4302 66.928C63.7942 67.292 64.2562 67.474 64.8162 67.474C65.3762 67.474 65.8382 67.292 66.2022 66.928C66.5802 66.55 66.7622 66.074 66.7622 65.5C66.7622 64.926 66.5802 64.45 66.2022 64.086C65.8382 63.708 65.3762 63.526 64.8162 63.526C64.2562 63.526 63.7942 63.708 63.4302 64.086C63.0662 64.45 62.8842 64.926 62.8842 65.5C62.8842 66.074 63.0662 66.55 63.4302 66.928ZM74.0979 61.804C74.8679 61.804 75.4979 62.056 75.9879 62.574C76.4919 63.092 76.7439 63.792 76.7439 64.702V69H74.9379V64.926C74.9379 63.988 74.3919 63.484 73.5519 63.484C72.6139 63.484 72.0119 64.058 72.0119 65.22V69H70.2059V62H72.0119V62.784C72.4459 62.126 73.1459 61.804 74.0979 61.804ZM83.648 62.868V62H85.412V68.664C85.412 69.742 85.048 70.568 84.334 71.142C83.62 71.716 82.766 71.996 81.758 71.996C80.246 71.996 79.056 71.408 78.44 70.288L79.98 69.406C80.33 70.064 80.946 70.386 81.814 70.386C82.948 70.386 83.648 69.77 83.648 68.664V67.908C83.116 68.622 82.374 68.972 81.408 68.972C80.414 68.972 79.588 68.622 78.916 67.936C78.258 67.236 77.922 66.382 77.922 65.388C77.922 64.394 78.258 63.554 78.93 62.854C79.602 62.154 80.428 61.804 81.408 61.804C82.374 61.804 83.116 62.154 83.648 62.868ZM83.648 65.388C83.648 64.842 83.466 64.38 83.088 64.03C82.724 63.666 82.262 63.484 81.688 63.484C81.114 63.484 80.652 63.666 80.274 64.03C79.91 64.38 79.728 64.842 79.728 65.388C79.728 66.508 80.554 67.306 81.688 67.306C82.822 67.306 83.648 66.508 83.648 65.388Z" fill="white"/>
<path d="M16.6376 47.3H19.6076C20.6526 47.3 21.5216 47.674 22.2036 48.422C22.8966 49.159 23.2376 50.072 23.2376 51.15C23.2376 52.228 22.8966 53.141 22.2036 53.889C21.5216 54.626 20.6526 55 19.6076 55H16.6376V51.546H15.9336V50.886H16.6376V47.3ZM17.4076 54.274H19.6076C20.4546 54.274 21.1366 53.977 21.6756 53.372C22.2146 52.767 22.4896 52.03 22.4896 51.15C22.4896 50.27 22.2146 49.533 21.6756 48.928C21.1366 48.323 20.4546 48.026 19.6076 48.026H17.4076V50.886H19.3656V51.546H17.4076V54.274ZM26.9912 49.368C27.8052 49.368 28.4652 49.654 28.9602 50.237C29.4662 50.809 29.7192 51.491 29.7192 52.272C29.7192 52.349 29.7082 52.47 29.6972 52.613H24.8682C25.0112 53.724 25.8802 54.428 27.0572 54.428C27.8932 54.428 28.5202 54.054 28.8282 53.493L29.4662 53.867C28.9822 54.648 28.1132 55.132 27.0462 55.132C26.1772 55.132 25.4732 54.857 24.9342 54.318C24.3952 53.779 24.1202 53.086 24.1202 52.25C24.1202 51.425 24.3842 50.743 24.9232 50.193C25.4622 49.643 26.1442 49.368 26.9912 49.368ZM26.9912 50.072C25.8472 50.072 25.0112 50.82 24.8682 51.909H28.9712C28.8942 51.326 28.6742 50.875 28.3002 50.556C27.9262 50.237 27.4862 50.072 26.9912 50.072ZM27.7502 48.73L27.0352 47.839L26.3202 48.73H25.5502L26.6392 47.399H27.4312L28.5202 48.73H27.7502ZM28.6082 47.773H28.1022C28.1022 47.377 28.1132 47.256 28.3112 47.124C28.3112 47.124 28.4212 47.069 28.4102 47.08C28.5312 46.992 28.6412 46.926 28.6412 46.75C28.6412 46.607 28.5202 46.508 28.3662 46.508C28.2012 46.508 28.0142 46.629 27.9372 46.882C27.9372 46.871 27.7612 46.816 27.4862 46.651C27.6402 46.211 27.9922 46.013 28.3662 46.013C28.7842 46.013 29.1692 46.244 29.1692 46.739C29.1692 47.113 28.9932 47.311 28.8172 47.399C28.6742 47.476 28.5862 47.553 28.6082 47.773ZM34.35 55H33.624V46.97H34.35V55ZM38.8386 56.837C38.6296 57.046 38.2996 57.046 38.0906 56.837C37.8816 56.628 37.8816 56.298 38.0906 56.089C38.2996 55.88 38.6296 55.88 38.8386 56.089C39.0476 56.298 39.0476 56.628 38.8386 56.837ZM40.6206 50.578V49.5H41.3466V55H40.6206V53.922C40.1146 54.725 39.3776 55.132 38.3986 55.132C37.6176 55.132 36.9466 54.857 36.3856 54.296C35.8356 53.735 35.5606 53.053 35.5606 52.25C35.5606 51.447 35.8356 50.765 36.3856 50.204C36.9466 49.643 37.6176 49.368 38.3986 49.368C39.3776 49.368 40.1146 49.775 40.6206 50.578ZM36.9136 53.801C37.3316 54.219 37.8486 54.428 38.4536 54.428C39.0586 54.428 39.5756 54.219 39.9936 53.801C40.4116 53.372 40.6206 52.855 40.6206 52.25C40.6206 51.645 40.4116 51.128 39.9936 50.71C39.5756 50.281 39.0586 50.072 38.4536 50.072C37.8486 50.072 37.3316 50.281 36.9136 50.71C36.4956 51.128 36.2866 51.645 36.2866 52.25C36.2866 52.855 36.4956 53.372 36.9136 53.801ZM43.6208 48.543C43.4118 48.752 43.0818 48.752 42.8728 48.543C42.6638 48.334 42.6638 48.004 42.8728 47.795C43.0818 47.586 43.4118 47.586 43.6208 47.795C43.8298 48.004 43.8298 48.334 43.6208 48.543ZM43.6098 55H42.8838V49.5H43.6098V55ZM50.8154 49.5V50.204H49.2314V53.537C49.2314 54.483 49.7594 54.406 50.8154 54.362V55C49.2754 55.231 48.5054 54.813 48.5054 53.537V50.204H47.3504V49.5H48.5054V48.18L49.2314 47.96V49.5H50.8154ZM54.5994 49.368C55.9304 49.368 56.7554 50.248 56.7554 51.623V55H56.0294V51.623C56.0294 50.644 55.4904 50.072 54.5334 50.072C53.4774 50.072 52.7514 50.721 52.7514 52.118V55H52.0254V47.3H52.7514V50.358C53.1584 49.698 53.7744 49.368 54.5994 49.368ZM61.4922 48.73L60.7222 47.773L59.9522 48.73H59.1272L60.2932 47.3H61.1512L62.3172 48.73H61.4922ZM58.6652 50.204C59.2262 49.643 59.9192 49.368 60.7222 49.368C61.5252 49.368 62.2072 49.643 62.7682 50.204C63.3292 50.754 63.6152 51.436 63.6152 52.25C63.6152 53.064 63.3292 53.746 62.7682 54.307C62.2072 54.857 61.5252 55.132 60.7222 55.132C59.9192 55.132 59.2262 54.857 58.6652 54.307C58.1042 53.746 57.8292 53.064 57.8292 52.25C57.8292 51.436 58.1042 50.754 58.6652 50.204ZM59.1822 53.801C59.6002 54.219 60.1172 54.428 60.7222 54.428C61.3272 54.428 61.8442 54.219 62.2622 53.801C62.6802 53.372 62.8892 52.855 62.8892 52.25C62.8892 51.645 62.6802 51.128 62.2622 50.71C61.8442 50.281 61.3272 50.072 60.7222 50.072C60.1172 50.072 59.6002 50.281 59.1822 50.71C58.7642 51.128 58.5552 51.645 58.5552 52.25C58.5552 52.855 58.7642 53.372 59.1822 53.801ZM67.4041 49.368C68.7351 49.368 69.5601 50.248 69.5601 51.623V55H68.8341V51.623C68.8341 50.644 68.2951 50.072 67.3381 50.072C66.2821 50.072 65.5561 50.721 65.5561 52.118V55H64.8301V49.5H65.5561V50.358C65.9631 49.698 66.5791 49.368 67.4041 49.368ZM75.6938 50.578V49.5H76.4198V54.78C76.4198 55.572 76.1448 56.199 75.6058 56.65C75.0668 57.101 74.4178 57.332 73.6588 57.332C72.3718 57.332 71.5028 56.881 71.0518 55.99L71.6898 55.627C72.0198 56.298 72.6798 56.628 73.6588 56.628C74.9238 56.628 75.6938 55.913 75.6938 54.78V53.922C75.1878 54.725 74.4508 55.132 73.4718 55.132C72.6908 55.132 72.0198 54.857 71.4588 54.296C70.9088 53.735 70.6338 53.053 70.6338 52.25C70.6338 51.447 70.9088 50.765 71.4588 50.204C72.0198 49.643 72.6908 49.368 73.4718 49.368C74.4508 49.368 75.1878 49.775 75.6938 50.578ZM71.9868 53.801C72.4048 54.219 72.9218 54.428 73.5268 54.428C74.1318 54.428 74.6488 54.219 75.0668 53.801C75.4848 53.372 75.6938 52.855 75.6938 52.25C75.6938 51.645 75.4848 51.128 75.0668 50.71C74.6488 50.281 74.1318 50.072 73.5268 50.072C72.9218 50.072 72.4048 50.281 71.9868 50.71C71.5688 51.128 71.3598 51.645 71.3598 52.25C71.3598 52.855 71.5688 53.372 71.9868 53.801ZM83.622 49.5V50.204H82.038V53.537C82.038 54.483 82.566 54.406 83.622 54.362V55C82.082 55.231 81.312 54.813 81.312 53.537V50.204H80.157V49.5H81.312V48.18L82.038 47.96V49.5H83.622ZM85.569 48.543C85.36 48.752 85.03 48.752 84.821 48.543C84.612 48.334 84.612 48.004 84.821 47.795C85.03 47.586 85.36 47.586 85.569 47.795C85.778 48.004 85.778 48.334 85.569 48.543ZM85.558 55H84.832V49.5H85.558V55ZM89.6726 49.368C91.0036 49.368 91.8286 50.248 91.8286 51.623V55H91.1026V51.623C91.1026 50.644 90.5636 50.072 89.6066 50.072C88.5506 50.072 87.8246 50.721 87.8246 52.118V55H87.0986V49.5H87.8246V50.358C88.2316 49.698 88.8476 49.368 89.6726 49.368Z" fill="white"/>
<path d="M55.1495 85.594C54.3551 86.7528 52.6449 86.7528 51.8505 85.594L47.4193 79.1309C46.5094 77.8037 47.4597 76 49.0689 76L57.9311 76C59.5403 76 60.4906 77.8037 59.5807 79.1309L55.1495 85.594Z" fill="#3BB9B7"/>
<path fill-rule="evenodd" clip-rule="evenodd" d="M54 43C66.7025 43 77 32.7025 77 20H31C31 32.7025 41.2975 43 54 43Z" fill="#3BB9B7"/>
<circle cx="54" cy="20" r="20" fill="#FF9900"/>
<g clip-path="url(#clip0_306_235)">
<path d="M60.7201 26.16C60.7381 26.3203 60.7219 26.4826 60.6726 26.6363C60.6234 26.7899 60.5422 26.9314 60.4344 27.0514C60.3262 27.1712 60.1939 27.2668 60.0462 27.3317C59.8985 27.3968 59.7386 27.4298 59.5772 27.4285H48.4229C48.2615 27.4298 48.1017 27.3968 47.954 27.3317C47.8062 27.2668 47.6739 27.1712 47.5658 27.0514C47.4579 26.9314 47.3767 26.7899 47.3275 26.6363C47.2782 26.4826 47.2621 26.3203 47.2801 26.16L48.2858 17.1428H59.7144L60.7201 26.16Z" stroke="white" stroke-linecap="round" stroke-linejoin="round"/>
<path d="M51.1428 17.1428V15.4286C51.1428 14.6708 51.4438 13.9441 51.9797 13.4082C52.5155 12.8724 53.2422 12.5714 54 12.5714C54.7577 12.5714 55.4845 12.8724 56.0203 13.4082C56.5561 13.9441 56.8571 14.6708 56.8571 15.4286V17.1428" stroke="white" stroke-linecap="round" stroke-linejoin="round"/>
</g>
<defs>
<linearGradient id="paint0_linear_306_235" x1="7.5" y1="30" x2="92" y2="71" gradientUnits="userSpaceOnUse">
<stop stop-color="#3BB9B7"/>
<stop offset="1" stop-color="#20A2A0"/>
</linearGradient>
<clipPath id="clip0_306_235">
<rect width="16" height="16" fill="white" transform="translate(46 12)"/>
</clipPath>
</defs>
</svg>
