<svg width="24" height="24" viewBox="0 0 24 24" fill="none" xmlns="http://www.w3.org/2000/svg">
<path d="M12.001 2.16142C15.2042 2.16142 15.5911 2.17339 16.8497 2.23121C17.6104 2.24095 18.3638 2.38053 19.0775 2.64394C19.596 2.84423 20.0667 3.15111 20.459 3.54471C20.8514 3.93832 21.1567 4.40988 21.3553 4.9289C21.6188 5.64236 21.7584 6.39557 21.7681 7.15604C21.826 8.42214 21.838 8.80097 21.838 12.0031C21.838 15.2052 21.826 15.5921 21.7681 16.8522C21.7584 17.6126 21.6188 18.3659 21.3553 19.0793C21.1548 19.5963 20.8487 20.0658 20.4565 20.4579C20.0644 20.8499 19.5947 21.1559 19.0775 21.3563C18.3638 21.6197 17.6104 21.7593 16.8497 21.769C15.5851 21.8268 15.2042 21.8388 12.001 21.8388C8.79779 21.8388 8.41087 21.8268 7.15033 21.769C6.38962 21.7593 5.63615 21.6197 4.92245 21.3563C4.40474 21.1569 3.93457 20.8512 3.54226 20.459C3.14995 20.0669 2.84419 19.5969 2.64471 19.0793C2.38122 18.3659 2.2416 17.6126 2.23185 16.8522C2.17401 15.5861 2.16205 15.2072 2.16205 12.0031C2.16205 8.79898 2.17401 8.41416 2.23185 7.15604C2.2416 6.39557 2.38122 5.64236 2.64471 4.9289C2.84419 4.41136 3.14995 3.94135 3.54226 3.54916C3.93457 3.15698 4.40474 2.85133 4.92245 2.65191C5.63615 2.38851 6.38962 2.24893 7.15033 2.23918C8.41685 2.18136 8.7958 2.1694 12.001 2.1694M12.001 0.00805664C8.74195 0.00805664 8.33308 0.0220138 7.05261 0.0798357C6.05729 0.0994728 5.07256 0.288261 4.14059 0.638117C3.34351 0.946258 2.61958 1.41737 2.01511 2.0213C1.41064 2.62523 0.938946 3.34867 0.630249 4.14531C0.280056 5.0776 0.0912176 6.06268 0.0717997 7.05834C0.0139587 8.3364 0 8.74514 0 12.0031C0 15.2611 0.0139587 15.6698 0.0717997 16.9499C0.092367 17.9448 0.281173 18.929 0.630249 19.8609C0.938498 20.658 1.40999 21.382 2.0145 21.9863C2.61902 22.5906 3.34319 23.0619 4.14059 23.3701C5.07281 23.7191 6.05739 23.9078 7.05261 23.9284C8.33308 23.9862 8.74195 24.0001 12.001 24.0001C15.26 24.0001 15.6689 23.9862 16.9474 23.9284C17.9433 23.9078 18.9285 23.7191 19.8614 23.3701C20.6585 23.0619 21.3824 22.5906 21.9866 21.9862C22.5908 21.3819 23.0619 20.658 23.3697 19.8609C23.7197 18.9292 23.9086 17.9449 23.9282 16.9499C23.986 15.6698 24 15.2611 24 12.0031C24 8.74514 23.986 8.3364 23.9282 7.05834C23.9088 6.06268 23.7199 5.0776 23.3697 4.14531C23.061 3.34898 22.5896 2.62578 21.9855 2.02189C21.3814 1.418 20.658 0.946705 19.8614 0.638117C18.9288 0.288039 17.9434 0.0992472 16.9474 0.0798357C15.6689 0.0220138 15.26 0.00805664 12.001 0.00805664Z" fill="black"/>
<path d="M12.001 5.83618C10.7819 5.83579 9.59004 6.19684 8.57623 6.87367C7.56241 7.5505 6.77218 8.5127 6.30547 9.63856C5.83875 10.7644 5.71652 12.0034 5.95426 13.1987C6.192 14.394 6.77901 15.4919 7.64105 16.3537C8.50309 17.2155 9.60144 17.8023 10.7971 18.0399C11.9928 18.2776 13.2322 18.1554 14.3584 17.6889C15.4847 17.2223 16.4472 16.4323 17.1242 15.4188C17.8013 14.4054 18.1624 13.2139 18.1621 11.9952C18.1621 10.3617 17.5129 8.79516 16.3575 7.64012C15.2021 6.48508 13.635 5.83618 12.001 5.83618ZM12.001 15.9949C11.2096 15.9953 10.4358 15.761 9.77761 15.3218C9.11939 14.8825 8.60626 14.258 8.30312 13.5272C7.99999 12.7964 7.92047 11.9921 8.07463 11.2161C8.22878 10.4401 8.60968 9.72728 9.16915 9.16771C9.72862 8.60815 10.4415 8.22702 11.2177 8.07253C11.9939 7.91804 12.7984 7.99713 13.5296 8.2998C14.2608 8.60246 14.8858 9.11511 15.3256 9.7729C15.7653 10.4307 16 11.2041 16 11.9952C16 13.0556 15.5787 14.0727 14.8288 14.8227C14.0789 15.5727 13.0618 15.9944 12.001 15.9949Z" fill="black"/>
<path d="M18.4054 4.15332C18.6902 4.15332 18.9686 4.23775 19.2054 4.39593C19.4422 4.55411 19.6268 4.77894 19.7358 5.04199C19.8448 5.30503 19.8733 5.59448 19.8177 5.87373C19.7622 6.15298 19.625 6.40949 19.4236 6.61081C19.2222 6.81214 18.9656 6.94924 18.6863 7.00479C18.407 7.06034 18.1174 7.03183 17.8543 6.92287C17.5912 6.81391 17.3663 6.6294 17.208 6.39267C17.0498 6.15593 16.9653 5.87761 16.9653 5.59289C16.9653 5.21109 17.1171 4.84493 17.3871 4.57496C17.6572 4.30499 18.0234 4.15332 18.4054 4.15332Z" fill="black"/>
</svg>
