<svg width="24" height="24" viewBox="0 0 24 24" fill="none" xmlns="http://www.w3.org/2000/svg">
<path d="M18.742 11.1875C18.5431 11.1875 18.3461 11.2267 18.1624 11.303C17.9787 11.3793 17.8119 11.491 17.6715 11.6318C17.5311 11.7727 17.4199 11.9398 17.3444 12.1237C17.2688 12.3076 17.2303 12.5046 17.2311 12.7033C17.2453 13.0951 17.411 13.466 17.6934 13.7381C17.9758 14.0102 18.3527 14.1622 18.745 14.1622C19.1373 14.1622 19.5143 14.0102 19.7966 13.7381C20.079 13.466 20.2447 13.0951 20.2589 12.7033C20.2589 12.3013 20.0991 11.9158 19.8146 11.6315C19.5302 11.3472 19.1443 11.1875 18.742 11.1875Z" fill="black"/>
<path d="M10.892 11.2132C10.6862 11.1982 10.4795 11.2257 10.2849 11.2941C10.0902 11.3625 9.91177 11.4702 9.76065 11.6106C9.60953 11.7509 9.489 11.9209 9.40658 12.11C9.32416 12.299 9.28162 12.5029 9.28162 12.7091C9.28162 12.9153 9.32416 13.1192 9.40658 13.3083C9.489 13.4973 9.60953 13.6673 9.76065 13.8076C9.91177 13.948 10.0902 14.0558 10.2849 14.1241C10.4795 14.1925 10.6862 14.22 10.892 14.205C11.0978 14.22 11.3044 14.1925 11.4991 14.1241C11.6937 14.0558 11.8722 13.948 12.0233 13.8076C12.1744 13.6673 12.2949 13.4973 12.3774 13.3083C12.4598 13.1192 12.5023 12.9153 12.5023 12.7091C12.5023 12.5029 12.4598 12.299 12.3774 12.11C12.2949 11.9209 12.1744 11.7509 12.0233 11.6106C11.8722 11.4702 11.6937 11.3625 11.4991 11.2941C11.3044 11.2257 11.0978 11.1982 10.892 11.2132Z" fill="black"/>
<path d="M23.9282 7.05436C23.9077 6.05825 23.7188 5.07279 23.3698 4.13965C23.0615 3.34205 22.59 2.61769 21.9855 2.01303C21.381 1.40837 20.6568 0.936754 19.8594 0.628429C18.9271 0.28002 17.9425 0.0918308 16.9474 0.0718206C15.6669 0.0119702 15.2581 0 11.999 0C8.73997 0 8.33109 0.0119702 7.05261 0.0718206C6.05687 0.091874 5.07168 0.280059 4.13862 0.628429C3.34165 0.937506 2.61787 1.40939 2.01346 2.01395C1.40904 2.61852 0.937277 3.34249 0.628277 4.13965C0.279994 5.07294 0.0918481 6.05838 0.0717997 7.05436C0.0139587 8.33317 0 8.74215 0 12.002C0 15.2618 0.0139587 15.6708 0.0717997 16.9516C0.0914433 17.9472 0.280303 18.9321 0.630274 19.8643C0.938517 20.6616 1.40979 21.3857 2.01392 21.9904C2.61805 22.595 3.34171 23.0668 4.13862 23.3756C5.07141 23.7249 6.05676 23.9131 7.05261 23.9322C7.89629 23.9721 8.36103 23.992 9.51585 24C10.1142 24 10.8901 24 11.999 24H13.471C15.4276 24 15.8923 23.9781 16.9474 23.9282C17.9426 23.9092 18.9273 23.7209 19.8594 23.3716C20.6565 23.0627 21.3804 22.5909 21.9848 21.9863C22.5893 21.3817 23.061 20.6576 23.3698 19.8603C23.7186 18.9279 23.9075 17.9431 23.9282 16.9476C23.9861 15.6668 24 15.2579 24 11.998C24 8.73815 23.9861 8.33317 23.9282 7.05436ZM4.39592 14.1746C5.59263 14.1746 6.77538 14.1746 7.96611 14.1746C8.04389 14.1746 8.06982 14.1945 8.06583 14.2743C8.06583 14.4319 8.06583 14.5915 8.06583 14.7491C8.06637 14.8678 8.01986 14.9819 7.9365 15.0664C7.85315 15.1509 7.73974 15.1989 7.62106 15.2C6.02545 15.2 4.42584 15.2 2.82224 15.2C2.74845 15.2 2.71853 15.184 2.72452 15.1062C2.73648 14.9586 2.72452 14.811 2.75045 14.6653C2.79698 14.4513 2.90434 14.2552 3.0596 14.1007C4.10872 12.804 5.15715 11.5079 6.20494 10.2125C6.28073 10.1187 6.35652 10.0269 6.43032 9.93317C6.44959 9.90818 6.46757 9.88221 6.48417 9.85536H2.98381C2.8781 9.85536 2.8781 9.85536 2.8781 9.75162C2.8781 9.45037 2.8781 9.15312 2.8781 8.84788C2.8781 8.78005 2.89803 8.7601 2.96584 8.7601C4.63858 8.7601 6.31132 8.7601 7.98405 8.7601C8.05386 8.7601 8.06983 8.78205 8.06983 8.84988C8.0886 9.12257 8.02613 9.39472 7.89032 9.63192C7.79674 9.76546 7.69621 9.89398 7.58914 10.017L4.72901 13.608L4.33011 14.1007C4.31415 14.1187 4.30019 14.1406 4.27625 14.1746H4.39592ZM13.4191 15.1182C13.4191 15.1761 13.4012 15.196 13.3433 15.196C13.1778 15.196 13.0122 15.196 12.8467 15.196C12.7407 15.2038 12.6357 15.1714 12.5525 15.1052C12.4694 15.039 12.4142 14.9439 12.3979 14.8389C12.3979 14.817 12.386 14.795 12.376 14.7651C12.0843 14.9773 11.7506 15.1245 11.3972 15.1968C11.0439 15.269 10.6791 15.2647 10.3276 15.184C9.76643 15.0672 9.26394 14.7573 8.90751 14.3082C8.55917 13.8765 8.36261 13.3421 8.34819 12.7876C8.33377 12.233 8.50229 11.6891 8.82773 11.2399C9.02067 10.9666 9.26737 10.7355 9.55271 10.5609C9.83806 10.3863 10.156 10.2718 10.4872 10.2244C10.8181 10.1708 11.1565 10.1835 11.4825 10.262C11.8085 10.3404 12.1156 10.483 12.3859 10.6813C12.3859 10.5796 12.3859 10.4978 12.3859 10.416C12.3859 10.3342 12.3979 10.3342 12.4637 10.3342C12.7569 10.3342 13.0501 10.3342 13.3433 10.3342C13.3992 10.3342 13.4191 10.3501 13.4191 10.41C13.4178 11.9781 13.4178 13.5475 13.4191 15.1182ZM15.4256 11.9781V15.0903C15.4256 15.194 15.4256 15.194 15.3239 15.194C15.1244 15.194 14.925 15.194 14.7255 15.194C14.6724 15.1969 14.6192 15.1885 14.5695 15.1695C14.5198 15.1505 14.4747 15.1212 14.4371 15.0835C14.3994 15.0459 14.3701 15.0008 14.3511 14.951C14.3321 14.9013 14.3237 14.8482 14.3266 14.795C14.3266 13.1052 14.3266 11.4035 14.3266 9.72369C14.3266 9.43042 14.3266 9.13716 14.3266 8.84389C14.3266 8.77007 14.3446 8.74414 14.4204 8.74613C14.7235 8.74613 15.0187 8.74613 15.3318 8.74613C15.4056 8.74613 15.4276 8.76609 15.4276 8.8419C15.4236 9.89327 15.4256 10.9367 15.4256 11.9781ZM18.7564 15.2499C18.2516 15.2558 17.7564 15.1115 17.3338 14.8354C16.9111 14.5593 16.58 14.1637 16.3825 13.699C16.185 13.2343 16.13 12.7213 16.2246 12.2253C16.3191 11.7293 16.5589 11.2725 16.9135 10.9131C17.2681 10.5536 17.7215 10.3077 18.2161 10.2065C18.7107 10.1053 19.2242 10.1534 19.6914 10.3447C20.1586 10.536 20.5585 10.8618 20.8402 11.2809C21.1219 11.7 21.2727 12.1933 21.2735 12.6983C21.2751 13.3696 21.0116 14.0144 20.5401 14.4923C20.0687 14.9702 19.4276 15.2425 18.7564 15.2499Z" fill="black"/>
</svg>
