<svg width="24" height="24" viewBox="0 0 24 24" fill="none" xmlns="http://www.w3.org/2000/svg">
<path d="M7.51343 6.71704L15.2701 17.2188H16.4568L8.78792 6.71704H7.51343Z" fill="black"/>
<path d="M23.9282 7.05436C23.9076 6.05825 23.7188 5.07279 23.3697 4.13965C23.0615 3.34205 22.59 2.61769 21.9855 2.01303C21.381 1.40837 20.6568 0.936754 19.8594 0.628429C18.927 0.28002 17.9425 0.0918308 16.9474 0.0718206C15.6669 0.0119702 15.258 0 11.999 0C8.73995 0 8.33109 0.0119702 7.05261 0.0718206C6.05687 0.091874 5.07168 0.280059 4.13862 0.628429C3.34165 0.937506 2.61785 1.40939 2.01343 2.01395C1.40902 2.61852 0.937253 3.34249 0.628253 4.13965C0.279969 5.07294 0.0918481 6.05838 0.0717997 7.05436C0.0139587 8.33317 0 8.74215 0 12.002C0 15.2618 0.0139587 15.6708 0.0717997 16.9516C0.0914433 17.9472 0.280278 18.9321 0.630249 19.8643C0.938493 20.6616 1.40977 21.3857 2.0139 21.9904C2.61802 22.595 3.34171 23.0668 4.13862 23.3756C5.07141 23.7249 6.05676 23.9131 7.05261 23.9322C7.89629 23.9721 8.361 23.992 9.51583 24C10.1142 24 10.89 24 11.999 24H13.4709C15.4276 24 15.8923 23.9781 16.9474 23.9282C17.9426 23.9092 18.9273 23.7209 19.8594 23.3716C20.6565 23.0627 21.3804 22.5909 21.9848 21.9863C22.5893 21.3817 23.0609 20.6576 23.3697 19.8603C23.7186 18.9279 23.9074 17.9431 23.9282 16.9476C23.986 15.6668 24 15.2579 24 11.998C24 8.73815 23.986 8.33317 23.9282 7.05436ZM14.6776 18.5496L11.287 13.9711L7.41959 18.5496H5.28547L10.2957 12.6165L5.00823 5.45636H9.43404L12.4877 9.64589L16.0219 5.45636H18.166L13.4809 11.0025L18.9938 18.5496H14.6776Z" fill="black"/>
</svg>
