<svg width="30" height="30" viewBox="0 0 30 30" fill="none" xmlns="http://www.w3.org/2000/svg">
<path d="M27.3471 14.2943C27.347 11.6403 26.552 9.0488 25.0673 6.86261C23.5826 4.67641 21.4781 2.99848 19.0321 2.05072C16.5861 1.10296 13.9139 0.930013 11.3689 1.55476C8.82384 2.17951 6.52585 3.57251 4.77883 5.54955C3.03181 7.52659 1.91806 9.99453 1.58487 12.627C1.25168 15.2594 1.71475 17.9324 2.91284 20.2923C4.11093 22.6523 5.98759 24.588 8.29465 25.8436C10.6017 27.0992 13.2305 27.6155 15.8333 27.3241M10.1022 11.3813H10.1166M18.7247 11.3813H18.739" stroke="#777676" stroke-width="2" stroke-linecap="round" stroke-linejoin="round"/>
<path d="M10.8208 18.6638C11.3469 19.1762 11.9742 19.5697 12.6614 19.8182C13.3486 20.0668 14.08 20.1648 14.8072 20.1057M24.4644 28.131L28.083 24.3733C28.532 23.9019 28.7835 23.2725 28.7846 22.6172C28.7856 21.9619 28.5362 21.3317 28.0887 20.8588C27.871 20.6282 27.6096 20.4446 27.3202 20.319C27.0308 20.1934 26.7194 20.1282 26.4045 20.1276C26.0897 20.1269 25.778 20.1906 25.4881 20.315C25.1981 20.4394 24.936 20.6219 24.7173 20.8515L24.4759 21.102L24.2345 20.8515C24.0167 20.621 23.7552 20.4376 23.4658 20.3121C23.1763 20.1865 22.8648 20.1215 22.55 20.121C22.2352 20.1205 21.9235 20.1844 21.6336 20.3089C21.3437 20.4334 21.0816 20.616 20.8631 20.8456C20.4144 21.317 20.1632 21.9461 20.1622 22.601C20.1611 23.2559 20.4102 23.8859 20.8573 24.3587L24.4644 28.131Z" stroke="#777676" stroke-width="2" stroke-linecap="round" stroke-linejoin="round"/>
</svg>
