<svg width="28" height="28" viewBox="0 0 28 28" fill="none" xmlns="http://www.w3.org/2000/svg">
<path d="M22.8377 23.625H5.16269C4.94738 23.624 4.73981 23.5446 4.57878 23.4017C4.41774 23.2588 4.31426 23.0621 4.28769 22.8484L2.73456 8.84844C2.72075 8.72646 2.73276 8.60293 2.76981 8.4859C2.80686 8.36886 2.86812 8.26093 2.94962 8.16912C3.03111 8.07731 3.13101 8.00368 3.24282 7.953C3.35464 7.90233 3.47586 7.87575 3.59862 7.875H24.4017C24.5245 7.87575 24.6457 7.90233 24.7575 7.953C24.8694 8.00368 24.9693 8.07731 25.0508 8.16912C25.1323 8.26093 25.1935 8.36886 25.2306 8.4859C25.2676 8.60293 25.2796 8.72646 25.2658 8.84844L23.7127 22.8484C23.6861 23.0621 23.5826 23.2588 23.4216 23.4017C23.2606 23.5446 23.053 23.624 22.8377 23.625V23.625Z" stroke="#191C1F" stroke-width="3" stroke-linecap="round" stroke-linejoin="round"/>
<path d="M9.625 11.375V7.875C9.625 6.71468 10.0859 5.60188 10.9064 4.78141C11.7269 3.96094 12.8397 3.5 14 3.5C15.1603 3.5 16.2731 3.96094 17.0936 4.78141C17.9141 5.60188 18.375 6.71468 18.375 7.875V11.375" stroke="#191C1F" stroke-width="3" stroke-linecap="round" stroke-linejoin="round"/>
</svg>
