<svg width="28" height="29" viewBox="0 0 28 29" fill="none" xmlns="http://www.w3.org/2000/svg">
<path d="M13.9337 27.843C12.2352 27.843 10.5534 27.504 8.98418 26.8452C7.41499 26.1864 5.98919 25.2209 4.78819 24.0036C3.58718 22.7864 2.6345 21.3413 1.98452 19.751C1.33454 18.1606 1 16.456 1 14.7346C1 13.0131 1.33454 11.3086 1.98452 9.71817C2.6345 8.12778 3.58718 6.68271 4.78819 5.46548C5.98919 4.24824 7.41499 3.28268 8.98418 2.62392C10.5534 1.96516 12.2352 1.6261 13.9337 1.6261C17.3639 1.6261 20.6536 3.00716 23.0792 5.46548C25.5047 7.92379 26.8674 11.258 26.8674 14.7346C26.8674 18.2111 25.5047 21.5453 23.0792 24.0036C20.6536 26.462 17.3639 27.843 13.9337 27.843Z" stroke="#777676" stroke-width="2" stroke-linecap="round" stroke-linejoin="round"/>
<path d="M8.1853 20.5604L9.62238 19.1039L11.778 20.5604L13.9336 19.1039L16.0892 20.5604L18.2448 19.1039L19.6819 20.5604M8.90384 14.0062L11.0595 11.8215L8.90384 9.63672M18.9634 14.0062L16.8078 11.8215L18.9634 9.63672" stroke="#777676" stroke-width="2" stroke-linecap="round" stroke-linejoin="round"/>
</svg>
