<svg width="29" height="29" viewBox="0 0 29 29" fill="none" xmlns="http://www.w3.org/2000/svg">
<path d="M10.0217 11.3731H10.0361M18.6531 11.3731H18.6675M10.0217 18.7127H18.6531M1.39026 14.3089C1.39026 16.0439 1.72515 17.7618 2.3758 19.3647C3.02646 20.9676 3.98014 22.424 5.18239 23.6508C6.38465 24.8776 7.81193 25.8507 9.38275 26.5146C10.9536 27.1786 12.6372 27.5203 14.3374 27.5203C16.0377 27.5203 17.7213 27.1786 19.2921 26.5146C20.8629 25.8507 22.2902 24.8776 23.4924 23.6508C24.6947 22.424 25.6484 20.9676 26.299 19.3647C26.9497 17.7618 27.2846 16.0439 27.2846 14.3089C27.2846 12.574 26.9497 10.856 26.299 9.25314C25.6484 7.65026 24.6947 6.19385 23.4924 4.96706C22.2902 3.74027 20.8629 2.76713 19.2921 2.10319C17.7213 1.43926 16.0377 1.09753 14.3374 1.09753C12.6372 1.09753 10.9536 1.43926 9.38275 2.10319C7.81193 2.76713 6.38465 3.74027 5.18239 4.96706C3.98014 6.19385 3.02646 7.65026 2.3758 9.25314C1.72515 10.856 1.39026 12.574 1.39026 14.3089Z" stroke="#777676" stroke-width="2" stroke-linecap="round" stroke-linejoin="round"/>
</svg>
