<svg width="24" height="24" viewBox="0 0 24 24" fill="none" xmlns="http://www.w3.org/2000/svg">
<path d="M23.9302 7.05319C23.9096 6.05724 23.7208 5.07195 23.3717 4.13896C23.0634 3.3415 22.5919 2.61726 21.9873 2.0127C21.3827 1.40814 20.6585 0.936598 19.861 0.628325C18.9286 0.279974 17.944 0.0918155 16.9488 0.0718086C15.6682 0.0119682 15.2593 0 12 0C8.7407 0 8.33178 0.0119682 7.05319 0.0718086C6.05737 0.0918587 5.0721 0.280012 4.13896 0.628325C3.34193 0.93735 2.61809 1.40915 2.01363 2.01362C1.40916 2.61808 0.937355 3.34193 0.62833 4.13896C0.280017 5.0721 0.0918557 6.05737 0.0718056 7.05319C0.0139599 8.33178 0 8.74069 0 12C0 15.2593 0.0139599 15.6682 0.0718056 16.9488C0.0914509 17.9442 0.280326 18.929 0.630326 19.861C0.938595 20.6582 1.40989 21.3822 2.01406 21.9867C2.61824 22.5912 3.34199 23.063 4.13896 23.3717C5.07183 23.721 6.05727 23.9091 7.05319 23.9282C7.89694 23.9681 8.3617 23.988 9.51662 23.996V15.3431H7.53991V12.0499H9.52261V10.0711C9.52261 7.38431 10.6376 5.78457 13.8092 5.78457H16.4481V9.07979H14.7985C13.5638 9.07979 13.482 9.54056 13.482 10.4003V12.0479H16.4741L16.1051 15.3431H13.4721V24C15.4289 24 15.8936 23.9781 16.9488 23.9282C17.9441 23.9092 18.9289 23.721 19.861 23.3717C20.6582 23.0629 21.3821 22.5911 21.9866 21.9866C22.5911 21.3822 23.0629 20.6582 23.3717 19.861C23.7206 18.9287 23.9094 17.9441 23.9302 16.9488C23.988 15.6682 24.002 15.2593 24.002 12C24.002 8.74069 23.988 8.33178 23.9302 7.05319Z" fill="white"/>
</svg>
