<svg width="29" height="29" viewBox="0 0 29 29" fill="none" xmlns="http://www.w3.org/2000/svg">
<path d="M10.1699 11.293H10.1844M18.9089 11.293H18.9234M1.43091 14.206C1.43091 15.9274 1.76997 17.632 2.42873 19.2224C3.08749 20.8128 4.05305 22.2578 5.27029 23.4751C6.48752 24.6923 7.93259 25.6579 9.52298 26.3166C11.1134 26.9754 12.8179 27.3145 14.5394 27.3145C16.2608 27.3145 17.9654 26.9754 19.5558 26.3166C21.1462 25.6579 22.5912 24.6923 23.8084 23.4751C25.0257 22.2578 25.9912 20.8128 26.65 19.2224C27.3088 17.632 27.6478 15.9274 27.6478 14.206C27.6478 12.4846 27.3088 10.78 26.65 9.1896C25.9912 7.59921 25.0257 6.15415 23.8084 4.93691C22.5912 3.71968 21.1462 2.75412 19.5558 2.09536C17.9654 1.43659 16.2608 1.09753 14.5394 1.09753C12.8179 1.09753 11.1134 1.43659 9.52298 2.09536C7.93259 2.75412 6.48752 3.71968 5.27029 4.93691C4.05305 6.15415 3.08749 7.59921 2.42873 9.1896C1.76997 10.78 1.43091 12.4846 1.43091 14.206Z" stroke="#777676" stroke-width="2" stroke-linecap="round" stroke-linejoin="round"/>
<path d="M10.8982 18.9396C11.3728 18.4552 11.9394 18.0703 12.5646 17.8076C13.1899 17.5449 13.8612 17.4095 14.5394 17.4095C15.2176 17.4095 15.889 17.5449 16.5143 17.8076C17.1395 18.0703 17.706 18.4552 18.1807 18.9396" stroke="#777676" stroke-width="2" stroke-linecap="round" stroke-linejoin="round"/>
</svg>
