<svg width="30" height="29" viewBox="0 0 30 29" fill="none" xmlns="http://www.w3.org/2000/svg">
<path d="M10.5601 11.293H10.5747M19.2991 11.293H19.3137M1.82117 14.206C1.82117 15.9274 2.16023 17.632 2.81899 19.2224C3.47775 20.8128 4.44331 22.2578 5.66055 23.4751C6.87778 24.6923 8.32285 25.6579 9.91324 26.3166C11.5036 26.9754 13.2082 27.3145 14.9296 27.3145C16.6511 27.3145 18.3556 26.9754 19.946 26.3166C21.5364 25.6579 22.9815 24.6923 24.1987 23.4751C25.4159 22.2578 26.3815 20.8128 27.0403 19.2224C27.699 17.632 28.0381 15.9274 28.0381 14.206C28.0381 12.4846 27.699 10.78 27.0403 9.1896C26.3815 7.59921 25.4159 6.15415 24.1987 4.93691C22.9815 3.71968 21.5364 2.75412 19.946 2.09536C18.3556 1.43659 16.6511 1.09753 14.9296 1.09753C13.2082 1.09753 11.5036 1.43659 9.91324 2.09536C8.32285 2.75412 6.87778 3.71968 5.66055 4.93691C4.44331 6.15415 3.47775 7.59921 2.81899 9.1896C2.16023 10.78 1.82117 12.4846 1.82117 14.206Z" stroke="#777676" stroke-width="2" stroke-linecap="round" stroke-linejoin="round"/>
<path d="M11.2883 18.5756C11.763 19.06 12.3295 19.4448 12.9547 19.7076C13.58 19.9703 14.2514 20.1056 14.9296 20.1056C15.6078 20.1056 16.2792 19.9703 16.9044 19.7076C17.5296 19.4448 18.0962 19.06 18.5708 18.5756" stroke="#777676" stroke-width="2" stroke-linecap="round" stroke-linejoin="round"/>
</svg>
