<svg width="20" height="18" viewBox="0 0 20 18" fill="none" xmlns="http://www.w3.org/2000/svg">
<path d="M10.5344 16.8655L18.1281 9.27176C19.9938 7.39676 20.2656 4.33114 18.5031 2.37176C18.0611 1.87799 17.5231 1.47952 16.9219 1.20071C16.3206 0.921903 15.6689 0.768602 15.0064 0.750176C14.344 0.73175 13.6847 0.848586 13.0689 1.09355C12.4532 1.33851 11.8938 1.70645 11.425 2.17489L10 3.60926L8.77188 2.37176C6.89688 0.506135 3.83126 0.23426 1.87188 1.99676C1.37811 2.43878 0.979646 2.97683 0.700836 3.57804C0.422025 4.17925 0.268724 4.831 0.250298 5.49346C0.231872 6.15592 0.348708 6.81518 0.593669 7.43096C0.838629 8.04674 1.20657 8.6061 1.67501 9.07489L9.46563 16.8655C9.60783 17.0063 9.79987 17.0854 10 17.0854C10.2001 17.0854 10.3922 17.0063 10.5344 16.8655Z" fill="#EB0D78"/>
</svg>
