<svg width="28" height="28" viewBox="0 0 28 28" fill="none" xmlns="http://www.w3.org/2000/svg">
<path d="M22.8375 23.625H5.1625C4.9472 23.624 4.73963 23.5446 4.57859 23.4017C4.41756 23.2588 4.31408 23.0621 4.2875 22.8484L2.73438 8.84844C2.72056 8.72646 2.73257 8.60293 2.76962 8.4859C2.80668 8.36886 2.86794 8.26093 2.94943 8.16912C3.03093 8.07731 3.13083 8.00368 3.24264 7.953C3.35446 7.90233 3.47568 7.87575 3.59844 7.875H24.4016C24.5243 7.87575 24.6455 7.90233 24.7574 7.953C24.8692 8.00368 24.9691 8.07731 25.0506 8.16912C25.1321 8.26093 25.1933 8.36886 25.2304 8.4859C25.2674 8.60293 25.2794 8.72646 25.2656 8.84844L23.7125 22.8484C23.6859 23.0621 23.5824 23.2588 23.4214 23.4017C23.2604 23.5446 23.0528 23.624 22.8375 23.625V23.625Z" stroke="#191C1F" stroke-width="3" stroke-linecap="round" stroke-linejoin="round"/>
<path d="M9.625 11.375V7.875C9.625 6.71468 10.0859 5.60188 10.9064 4.78141C11.7269 3.96094 12.8397 3.5 14 3.5C15.1603 3.5 16.2731 3.96094 17.0936 4.78141C17.9141 5.60188 18.375 6.71468 18.375 7.875V11.375" stroke="#191C1F" stroke-width="3" stroke-linecap="round" stroke-linejoin="round"/>
</svg>
