<svg width="24" height="24" viewBox="0 0 24 24" fill="none" xmlns="http://www.w3.org/2000/svg">
<path d="M23.9282 7.05261C23.9088 6.05662 23.7199 5.07121 23.3697 4.13862C23.061 3.34203 22.5896 2.61858 21.9855 2.01449C21.3814 1.41041 20.658 0.938958 19.8614 0.630268C18.9288 0.280074 17.9434 0.0912206 16.9474 0.0718027C15.6689 0.0139617 15.26 0 12.001 0C8.74196 0 8.33308 0.0139617 7.0526 0.0718027C6.05728 0.0914463 5.07257 0.280296 4.14061 0.630268C3.34353 0.93851 2.61958 1.40978 2.01511 2.0139C1.41064 2.61803 0.938969 3.34171 0.630273 4.13862C0.281198 5.07153 0.0923721 6.05674 0.0717996 7.05261C0.0139587 8.33109 0 8.73997 0 11.999C0 15.258 0.0139587 15.6669 0.0717996 16.9474C0.0923669 17.9426 0.281197 18.9272 0.630273 19.8594C0.938521 20.6568 1.41002 21.381 2.01453 21.9855C2.61904 22.59 3.34321 23.0615 4.14061 23.3697C5.07283 23.7188 6.05738 23.9076 7.0526 23.9282C8.33308 23.986 8.74196 24 12.001 24C15.26 24 15.6689 23.986 16.9474 23.9282C17.9432 23.9076 18.9285 23.7188 19.8614 23.3697C20.6585 23.0615 21.3824 22.5899 21.9866 21.9854C22.5908 21.3809 23.0619 20.6567 23.3697 19.8594C23.7197 18.9274 23.9085 17.9427 23.9282 16.9474C23.986 15.6669 24 15.258 24 11.999C24 8.73997 23.986 8.33109 23.9282 7.05261ZM18.2717 10.6228C17.7263 10.5981 17.1842 10.524 16.6522 10.4014C16.0984 10.2587 15.5674 10.0391 15.0746 9.74919L14.6158 9.44602V14.8771C14.5978 15.4521 14.4901 16.0207 14.2967 16.5625C14.0869 17.1007 13.7867 17.5992 13.4091 18.0364C12.9557 18.552 12.401 18.9689 11.7796 19.261C11.1544 19.5504 10.4741 19.7015 9.7851 19.7038C8.82434 19.7007 7.88528 19.4179 7.08252 18.8901C6.64909 18.5882 6.26264 18.2239 5.93567 17.809C5.63412 17.4093 5.39225 16.9679 5.21765 16.4986C5.0243 15.9332 4.92852 15.339 4.93442 14.7415C4.94754 13.964 5.14802 13.2011 5.51883 12.5176C5.81255 11.99 6.19589 11.5175 6.6517 11.1214C7.17228 10.6845 7.77789 10.3603 8.43018 10.1694C9.08247 9.97856 9.76726 9.92511 10.4413 10.0125V12.7091C10.133 12.612 9.8074 12.5826 9.48672 12.6229C9.16605 12.6632 8.85785 12.7723 8.58318 12.9426C8.30851 13.1129 8.07384 13.3406 7.8952 13.6099C7.71656 13.8792 7.59818 14.184 7.54811 14.5033C7.49804 14.8226 7.51747 15.1489 7.60508 15.46C7.6927 15.7711 7.84643 16.0596 8.05577 16.3059C8.26511 16.5521 8.52513 16.7503 8.81808 16.8868C9.11102 17.0233 9.42998 17.095 9.75318 17.097C10.1371 17.0971 10.5144 16.9975 10.8482 16.8078C11.1685 16.6262 11.4392 16.3685 11.6364 16.0576C11.8337 15.7466 11.9513 15.3919 11.9791 15.0247C11.98 15.0174 11.98 15.01 11.9791 15.0027C11.9791 14.9848 11.9791 14.9688 11.9791 14.9529C11.9791 14.8173 11.9791 14.6816 11.9791 14.554V4.29419H14.6258C14.606 4.51011 14.6174 4.72775 14.6597 4.94041C14.7778 5.61404 15.0818 6.24127 15.5373 6.75143C15.7702 7.00215 16.032 7.22442 16.3171 7.41361C16.4149 7.47744 16.5166 7.53727 16.6203 7.59112C17.1325 7.86152 17.7046 7.9987 18.2837 7.99003L18.2717 10.6228Z" fill="black"/>
</svg>
